<svg xmlns="http://www.w3.org/2000/svg" xmlns:xlink="http://www.w3.org/1999/xlink" width="1024" height="620" viewBox="0 0 1024 620">
  <defs>
    <style>
      .cls-1 {
        isolation: isolate;
      }

      .cls-2 {
        fill: none;
      }

      .cls-3, .cls-4 {
        fill: #51b2fb;
      }

      .cls-3, .cls-37 {
        opacity: 0.1;
      }

      .cls-4 {
        opacity: 0.2;
      }

      .cls-5 {
        fill: #e3ebfc;
      }

      .cls-6 {
        fill: #ccddfa;
      }

      .cls-7 {
        fill: #fafbff;
      }

      .cls-8 {
        fill: #80a7f6;
      }

      .cls-9 {
        fill: #9fbcfb;
      }

      .cls-10 {
        fill: #b8d0f9;
      }

      .cls-11, .cls-27, .cls-36 {
        fill: #207bff;
      }

      .cls-11, .cls-28 {
        opacity: 0.4;
      }

      .cls-12 {
        fill: #004bff;
        opacity: 0.5;
        mix-blend-mode: multiply;
      }

      .cls-13 {
        fill: #c5d8fa;
      }

      .cls-14 {
        fill: url(#_ÂÁ_Ï_ÌÌ_È_ËÂÌÚ_30);
      }

      .cls-15 {
        fill: #4aebff;
      }

      .cls-16, .cls-35 {
        fill: #fff;
      }

      .cls-17 {
        fill: #bef9ff;
      }

      .cls-18 {
        fill: url(#linear-gradient);
      }

      .cls-19 {
        fill: #ec1c24;
      }

      .cls-20 {
        fill: url(#linear-gradient-2);
      }

      .cls-21 {
        fill: url(#linear-gradient-3);
      }

      .cls-22 {
        fill: url(#linear-gradient-4);
      }

      .cls-23 {
        fill: url(#linear-gradient-5);
      }

      .cls-24 {
        fill: url(#linear-gradient-6);
      }

      .cls-25 {
        fill: url(#linear-gradient-7);
      }

      .cls-26 {
        fill: #93b4fb;
      }

      .cls-28 {
        mix-blend-mode: lighten;
        fill: url(#radial-gradient);
      }

      .cls-29 {
        fill: #00ffda;
      }

      .cls-30 {
        fill: #7fd1ca;
      }

      .cls-31 {
        fill: #1e1e1e;
      }

      .cls-32 {
        fill: url(#_ÂÁ_Ï_ÌÌ_È_ËÂÌÚ_14);
      }

      .cls-33 {
        fill: url(#_ÂÁ_Ï_ÌÌ_È_ËÂÌÚ_18);
      }

      .cls-34 {
        fill: #4880f8;
      }

      .cls-35 {
        opacity: 0.8;
      }

      .cls-36 {
        opacity: 0.72;
      }

      .cls-37, .cls-38, .cls-39, .cls-40 {
        fill: #3ae6fb;
      }

      .cls-38 {
        opacity: 0.3;
      }

      .cls-40 {
        opacity: 0.7;
      }
    </style>
    <radialGradient id="_ÂÁ_Ï_ÌÌ_È_ËÂÌÚ_30" data-name="¡ÂÁ˚ÏˇÌÌ˚È „‡‰ËÂÌÚ 30" cx="4470.12" cy="481.65" r="7.44" gradientTransform="translate(-4284.51)" gradientUnits="userSpaceOnUse">
      <stop offset="0" stop-color="#4aebff"/>
      <stop offset="1" stop-color="#00709e"/>
    </radialGradient>
    <linearGradient id="linear-gradient" x1="152.65" y1="351.66" x2="152.65" y2="392.7" gradientTransform="translate(45.19)" gradientUnits="userSpaceOnUse">
      <stop offset="0.02" stop-color="#dd2a21"/>
      <stop offset="0.06" stop-color="#c8201b"/>
      <stop offset="0.1" stop-color="#b71717"/>
      <stop offset="0.15" stop-color="#ac1113"/>
      <stop offset="0.22" stop-color="#a50e12"/>
      <stop offset="0.43" stop-color="#a30d11"/>
      <stop offset="0.79" stop-color="#6b0006"/>
    </linearGradient>
    <linearGradient id="linear-gradient-2" x1="140.73" y1="353.49" x2="140.73" y2="382.95" gradientTransform="translate(45.19)" gradientUnits="userSpaceOnUse">
      <stop offset="0" stop-color="#ad1a27"/>
      <stop offset="0.08" stop-color="#9e151f"/>
      <stop offset="0.28" stop-color="#7d090e"/>
      <stop offset="0.44" stop-color="#680304"/>
      <stop offset="0.56" stop-color="#610000"/>
      <stop offset="0.73" stop-color="#520000"/>
      <stop offset="1" stop-color="#3f0000"/>
    </linearGradient>
    <linearGradient id="linear-gradient-3" x1="784.84" y1="368.66" x2="804.26" y2="368.66" gradientTransform="matrix(-1, 0, 0, 1, 1015.73, 0)" gradientUnits="userSpaceOnUse">
      <stop offset="0" stop-color="#be1349"/>
      <stop offset="0.24" stop-color="#be124e"/>
      <stop offset="0.25" stop-color="#be124e"/>
      <stop offset="1" stop-color="#7a0025"/>
    </linearGradient>
    <linearGradient id="linear-gradient-4" x1="778.86" y1="378.45" x2="804.34" y2="378.45" gradientTransform="matrix(-1, 0, 0, 1, 1015.73, 0)" gradientUnits="userSpaceOnUse">
      <stop offset="0" stop-color="#282881"/>
      <stop offset="0.27" stop-color="#26257d"/>
      <stop offset="0.55" stop-color="#1f1b70"/>
      <stop offset="0.84" stop-color="#150c5b"/>
      <stop offset="1" stop-color="#0d004c"/>
    </linearGradient>
    <linearGradient id="linear-gradient-5" x1="784.89" y1="378.45" x2="804.25" y2="378.45" xlink:href="#linear-gradient-3"/>
    <linearGradient id="linear-gradient-6" x1="788.81" y1="368.58" x2="813.15" y2="368.58" xlink:href="#linear-gradient-4"/>
    <linearGradient id="linear-gradient-7" x1="159.31" y1="377.47" x2="159.31" y2="363.53" gradientTransform="translate(45.19)" gradientUnits="userSpaceOnUse">
      <stop offset="0" stop-color="#ed2d24"/>
      <stop offset="0.12" stop-color="#ed2824"/>
      <stop offset="0.25" stop-color="#ec1c24"/>
      <stop offset="1" stop-color="#74020d"/>
    </linearGradient>
    <radialGradient id="radial-gradient" cx="3003.03" cy="624.5" r="15.76" gradientTransform="matrix(0.74, 0.02, -0.03, 0.82, -2121.15, -206.49)" gradientUnits="userSpaceOnUse">
      <stop offset="0" stop-color="#00ddde" stop-opacity="0.52"/>
      <stop offset="0.09" stop-color="#2de6e7" stop-opacity="0.65"/>
      <stop offset="0.2" stop-color="#63f1f1" stop-opacity="0.8"/>
      <stop offset="0.3" stop-color="#8af8f9" stop-opacity="0.91"/>
      <stop offset="0.38" stop-color="#a2fdfd" stop-opacity="0.98"/>
      <stop offset="0.43" stop-color="#abffff"/>
      <stop offset="0.46" stop-color="#9ffcfd"/>
      <stop offset="0.51" stop-color="#7ff6f6"/>
      <stop offset="0.58" stop-color="#4aebeb"/>
      <stop offset="0.66" stop-color="#03dcdd"/>
      <stop offset="0.66" stop-color="#00dbdc"/>
      <stop offset="0.69" stop-color="#08dcdd" stop-opacity="0.97"/>
      <stop offset="0.74" stop-color="#1fdfe0" stop-opacity="0.88"/>
      <stop offset="0.8" stop-color="#44e5e5" stop-opacity="0.73"/>
      <stop offset="0.87" stop-color="#78eced" stop-opacity="0.53"/>
      <stop offset="0.94" stop-color="#baf5f6" stop-opacity="0.27"/>
      <stop offset="1" stop-color="#fff" stop-opacity="0"/>
    </radialGradient>
    <linearGradient id="_ÂÁ_Ï_ÌÌ_È_ËÂÌÚ_14" data-name="¡ÂÁ˚ÏˇÌÌ˚È „‡‰ËÂÌÚ 14" x1="4377.58" y1="478.42" x2="4460.4" y2="478.42" gradientTransform="translate(-4259.86 13.43) rotate(-2.88)" gradientUnits="userSpaceOnUse">
      <stop offset="0" stop-color="#003a6b"/>
      <stop offset="1" stop-color="#00204c"/>
    </linearGradient>
    <linearGradient id="_ÂÁ_Ï_ÌÌ_È_ËÂÌÚ_18" data-name="¡ÂÁ˚ÏˇÌÌ˚È „‡‰ËÂÌÚ 18" x1="4443.61" y1="234.4" x2="4485.57" y2="305.09" gradientTransform="translate(-4284.51)" gradientUnits="userSpaceOnUse">
      <stop offset="0" stop-color="#cbd7e1"/>
      <stop offset="0.05" stop-color="#aec0d0"/>
      <stop offset="0.15" stop-color="#7998b2"/>
      <stop offset="0.26" stop-color="#4e7698"/>
      <stop offset="0.35" stop-color="#2c5c85"/>
      <stop offset="0.44" stop-color="#144976"/>
      <stop offset="0.53" stop-color="#053e6e"/>
      <stop offset="0.6" stop-color="#003a6b"/>
      <stop offset="1" stop-color="#00204c"/>
    </linearGradient>
  </defs>
  <title>robot</title>
  <g class="cls-1">
    <g id="prosabot_normal" data-name="prosabot normal">
      <g id="fondo">
        <rect class="cls-2" width="1024" height="620"/>
      </g>
      <g id="sombra">
        <ellipse class="cls-3" cx="165.17" cy="523.89" rx="59.69" ry="13.4"/>
        <ellipse class="cls-4" cx="165.17" cy="523.89" rx="46.5" ry="8.52"/>
        <path class="cls-4" d="M193.66,524.39c0,2.83-12.53,5.13-28,5.13s-28-2.3-28-5.13,12.53-5.13,28-5.13S193.66,521.55,193.66,524.39Z" transform="translate(-0.5 -0.5)"/>
      </g>
      <g id="brazoIzquierdo">
        <g>
          <path class="cls-5" d="M272.64,391.42C263.92,350,247,332.27,243,328.6a3.47,3.47,0,0,0-2.13-.92c-3-.19-10.55.57-18,11.6-5.16,7.62-3.37,19.93-2.9,20.53,4.85,6.21,35.3,45.36,43.39,58.77C272.17,433.15,276.37,409.14,272.64,391.42Z" transform="translate(-0.5 -0.5)"/>
          <path class="cls-6" d="M222.84,339.32a34.32,34.32,0,0,1,7.09-7.87c-.8,1-1.61,2-2.42,3.24-6.51,9.61-3.38,16.12-1.1,20.57,8.19,16,31.45,45.52,37.43,64.18l-.52-.82c-8.09-13.4-38.54-52.55-43.38-58.77C219.47,359.25,217.68,346.94,222.84,339.32Z" transform="translate(-0.5 -0.5)"/>
          <path class="cls-7" d="M246.57,343.18c19.51,14,25.2,64,25.2,64s-12.91-34.39-22.71-48.74S239.91,338.38,246.57,343.18Z" transform="translate(-0.5 -0.5)"/>
          <path class="cls-6" d="M258.5,410.54c.1,2.91.47,5.32.23,7.22-.09.65-3.28,3.85-3.31,3.5-.24-3-2.95-18.69-5.85-22.66C248.55,397.19,258.39,407.64,258.5,410.54Z" transform="translate(-0.5 -0.5)"/>
          <path class="cls-8" d="M249.23,399.1a.48.48,0,0,0,.38-.28c3.67-7.95,12.49-14.63,21.61-11.38a.48.48,0,1,0,.33-.91c-9.67-3.44-19,3.55-22.82,11.88a.48.48,0,0,0,.24.64A.47.47,0,0,0,249.23,399.1Z" transform="translate(-0.5 -0.5)"/>
        </g>
        <path class="cls-9" d="M243.71,347c-1.12,13-6.54,23.05-12.11,22.57s-9.17-11.37-8-24.32,6.53-22.86,12.11-22.57C243.72,323.14,244.84,334.08,243.71,347Z" transform="translate(-0.5 -0.5)"/>
      </g>
      <g id="torso">
        <path class="cls-5" d="M111.69,321.31c-5.77-.37-26.16,20.08-20,39.92s40.87,86,48.73,109.21,12.59,28.89,23.77,31,28.09,2.87,47.69-38.05,22.61-86.87,23.5-108.7-1.39-30.5-9-33C208.54,315.88,111.69,321.31,111.69,321.31Z" transform="translate(-0.5 -0.5)"/>
        <path class="cls-7" d="M204,458.56c15.2-43,13.37-89.31,12-111.23-.94-14.57-2.66-23.17-6-27.79-16.18-.91-39.83-.52-59.86.13,10.71,28.26,26.55,75.85,29.18,124.88,1.76,32.71-2.76,48.69-9,56.87C180.4,499.38,192.65,490.59,204,458.56Z" transform="translate(-0.5 -0.5)"/>
        <path class="cls-10" d="M228,323.51c0,4.24-30,10.82-60.21,10.87s-60.23-6.44-60.24-10.68,30-4.63,60.22-4.68S228,319.26,228,323.51Z" transform="translate(-0.5 -0.5)"/>
        <path class="cls-11" d="M209.75,324.37c0,2.93-20.65,7.49-41.47,7.52s-41.5-4.45-41.5-7.38,20.65-3.2,41.48-3.24S209.74,321.44,209.75,324.37Z" transform="translate(-0.5 -0.5)"/>
        <path class="cls-12" d="M197.07,325.89c0,1.13-14.23,2.55-28.11,2.57S141.8,327.11,141.8,326s13.28-1.56,27.15-1.59S197.07,324.77,197.07,325.89Z" transform="translate(-0.5 -0.5)"/>
        <path class="cls-13" d="M152.85,475.24c-3.22-17.35-8-74.08-19.41-114.12-5.72-20.07-19.17-34.22-32.19-29.74-9.25,3.19-12.9,19.12-9.58,29.85,6.13,19.83,40.87,86,48.73,109.21s12.59,28.89,23.77,31c5.76,1.08,13,1.8,21.42-3.34C174.25,499.87,158.17,504,152.85,475.24Z" transform="translate(-0.5 -0.5)"/>
        <path class="cls-14" d="M192.87,483.68a20.62,20.62,0,0,1-6.89,1.14,31.69,31.69,0,0,1-7.71-.56c-1.44-.36-2.69-1.3-2.69-2.87h0a2.8,2.8,0,0,1,2.7-2.86s5.93.66,7.37.65a52.56,52.56,0,0,0,7.49-.7c1.49,0,2.88.43,2.43,2.56C195.36,482,194.67,483,192.87,483.68Z" transform="translate(-0.5 -0.5)"/>
        <path class="cls-15" d="M191.92,483.37a21.2,21.2,0,0,1-5.95.8,33,33,0,0,1-6.67-.4c-1.24-.26-2.33-.92-2.32-2h0a2.21,2.21,0,0,1,2.33-2s5.12.47,6.37.47a57.09,57.09,0,0,0,6.48-.5c1.28,0,2.48.31,2.09,1.83C194.07,482.19,193.48,482.89,191.92,483.37Z" transform="translate(-0.5 -0.5)"/>
        <path class="cls-8" d="M184.32,470.6c-13.63,0-30.33-3-48.35-10.36a.48.48,0,1,1,.37-.89c33.57,13.8,62.46,12,75.09,4.58a.48.48,0,0,1,.66.17.49.49,0,0,1-.17.66C205.91,468.31,196.31,470.6,184.32,470.6Z" transform="translate(-0.5 -0.5)"/>
        <path class="cls-16" d="M184,469.52c-13.62,0-30.33-2.95-48.34-10.36a.48.48,0,0,1-.27-.63.49.49,0,0,1,.63-.26c33.58,13.8,62.46,12.05,75.09,4.58a.48.48,0,0,1,.49.83C205.56,467.23,196,469.52,184,469.52Z" transform="translate(-0.5 -0.5)"/>
        <path class="cls-7" d="M232.82,332.5c2.58,52.47-5,77.29-5,77.29s7.23-39.64.56-78C227.48,326.59,232.42,324.31,232.82,332.5Z" transform="translate(-0.5 -0.5)"/>
        <path class="cls-16" d="M112.2,328.84s6,3.59,27.8,5.62,50.55,1.64,50.55,1.64-26.48,3.51-50.66.9S112.2,328.84,112.2,328.84Z" transform="translate(-0.5 -0.5)"/>
        <path class="cls-17" d="M189.18,480c-1.06.09-2.29.17-3.5.18s-6.37-.47-6.37-.47a2.63,2.63,0,0,0-.49.05l2.35,4.29a45.27,45.27,0,0,0,4.8.14,21.8,21.8,0,0,0,5.55-.7Z" transform="translate(-0.5 -0.5)"/>
        <g>
          <path class="cls-18" d="M183.93,368.45a18.54,18.54,0,0,1,11.56-17.17,19.64,19.64,0,0,1,2.06.27,17.07,17.07,0,0,1,14.19,16.25c0,.18,0,.37,0,.56v.19h0A10.57,10.57,0,0,0,201.18,358a10.37,10.37,0,0,0-3.45.58c1-.38,1-.38-.07,0a10,10,0,0,0-3.56-.63c-5.9,0-10.09,4.76-10.09,10.47v.1c0,5.71,4.09,10.37,10,10.37a10.45,10.45,0,0,0,3.26-.52,10.58,10.58,0,0,0,14.49-9.65,16.91,16.91,0,0,1-14.09,16.61,21.25,21.25,0,0,1-2.16.26A18.53,18.53,0,0,1,183.93,368.45Z" transform="translate(-0.5 -0.5)"/>
          <path class="cls-19" d="M190.61,368.58a10.58,10.58,0,0,0,6.65,9.82,10.45,10.45,0,0,1-3.26.52c-5.9,0-10-4.66-10-10.37v-.1c0-5.71,4.19-10.47,10.09-10.47a10,10,0,0,1,3.56.63c1.07-.4,1.11-.4.07,0A10.56,10.56,0,0,0,190.61,368.58Z" transform="translate(-0.5 -0.5)"/>
          <path class="cls-20" d="M194,351.22c.5,0,1,0,1.49.06a18.53,18.53,0,0,0,0,34.34c-.46,0-.93.06-1.4.06-10.28,0-17.75-7.76-17.75-17.23v-.09C176.35,358.89,183.72,351.22,194,351.22Z" transform="translate(-0.5 -0.5)"/>
          <path class="cls-21" d="M211.75,368.58v0Z" transform="translate(-0.5 -0.5)"/>
          <path class="cls-22" d="M197.55,378.3c1.11.39,1.09.4,0,0Z" transform="translate(-0.5 -0.5)"/>
          <path class="cls-23" d="M197.55,378.3c1.11.39,1.09.4,0,0Z" transform="translate(-0.5 -0.5)"/>
          <path class="cls-24" d="M201.18,379.15a10.6,10.6,0,0,1-3.92-.75l.29-.1c1.09.4,1.11.39,0,0a10.32,10.32,0,0,0,6.8-9.85v-.09a10.14,10.14,0,0,0-6.68-9.75l.06,0a10.37,10.37,0,0,1,3.45-.58,10.57,10.57,0,0,1,10.57,10.55v.19A10.58,10.58,0,0,1,201.18,379.15Z" transform="translate(-0.5 -0.5)"/>
          <path class="cls-25" d="M201.18,379.15a10.6,10.6,0,0,1-3.92-.75l.29-.1c1.09.4,1.11.39,0,0a10.32,10.32,0,0,0,6.8-9.85v-.09a10.14,10.14,0,0,0-6.68-9.75l.06,0a10.37,10.37,0,0,1,3.45-.58,10.57,10.57,0,0,1,10.57,10.55v.19A10.58,10.58,0,0,1,201.18,379.15Z" transform="translate(-0.5 -0.5)"/>
        </g>
      </g>
      <g id="brazoDerecho">
        <path class="cls-26" d="M123.89,360.38c4.16,14.47.87,28.12-7.35,30.48s-18.24-7.46-22.4-21.94-.86-28.12,7.35-30.48S119.74,345.9,123.89,360.38Z" transform="translate(-0.5 -0.5)"/>
        <path class="cls-27" d="M113.91,387.28a.51.51,0,0,1-.53-.49.52.52,0,0,1,.48-.55,6,6,0,0,0,4.83-3.38c3.42-5.87,2.76-16.94-1.53-25.76-5.12-10.54-13.31-14.75-18-12.6a.52.52,0,0,1-.44-.95c5.85-2.7,14.52,3.17,19.34,13.09,4.43,9.11,5.07,20.61,1.49,26.75a7,7,0,0,1-5.66,3.89Z" transform="translate(-0.5 -0.5)"/>
        <g>
          <path class="cls-5" d="M68.93,414.37c3.46-42.23,18-61.9,21.5-66a3.45,3.45,0,0,1,2-1.18c2.9-.56,10.54-.75,19.34,9.25,6.07,6.91,5.84,19.35,5.45,20-4,6.77-29.33,49.44-35.67,63.75C74.64,455.71,67.46,432.42,68.93,414.37Z" transform="translate(-0.5 -0.5)"/>
          <path class="cls-6" d="M111.81,356.44a34.45,34.45,0,0,0-8-6.92,39.45,39.45,0,0,1,2.81,2.91c7.67,8.72,5.38,15.57,3.67,20.27-6.12,16.86-25.49,49.11-29.08,68.36.13-.28.27-.56.41-.87,6.34-14.32,31.64-57,35.67-63.75C117.65,375.79,117.88,363.35,111.81,356.44Z" transform="translate(-0.5 -0.5)"/>
          <path class="cls-7" d="M88.74,363.24c-17.59,16.38-17,66.66-17,66.66s8.49-35.73,16.41-51.2S94.75,357.65,88.74,363.24Z" transform="translate(-0.5 -0.5)"/>
          <path class="cls-6" d="M85.36,431.57c.26,2.9.2,5.33.68,7.18.17.64,3.73,3.41,3.72,3.07-.14-3,.58-18.91,3-23.22C93.56,417.07,85.1,428.68,85.36,431.57Z" transform="translate(-0.5 -0.5)"/>
          <path class="cls-8" d="M93.12,419.05a.48.48,0,0,1-.41-.23c-4.64-7.42-14.23-12.95-22.87-8.57a.49.49,0,0,1-.65-.21.48.48,0,0,1,.22-.65c9.15-4.64,19.26,1.14,24.12,8.92a.49.49,0,0,1-.16.67A.52.52,0,0,1,93.12,419.05Z" transform="translate(-0.5 -0.5)"/>
        </g>
        <g>
          <path class="cls-28" d="M99,375.2c-.22,7.16-5.62,12.8-12.07,12.6s-11.49-6.15-11.28-13.31,5.62-12.8,12.07-12.61S99.18,368,99,375.2Z" transform="translate(-0.5 -0.5)"/>
          <g>
            <path class="cls-29" d="M79.3,376c-.16,2.41,1.19,4.93,2.57,6.84A24,24,0,0,0,84.68,386s7.45-1.9,9.5-6.17c.42-.9,2.37-6.5,2.37-6.5s.59-1.35-.51-2a34.87,34.87,0,0,1-3.78-2.14,11,11,0,0,0-2.51-1.62c-.71-.25-1-.11-2.34,0-1.62.11-3.13-.08-4.44-.11S81.51,369,81.51,369,79.37,374.94,79.3,376Z" transform="translate(-0.5 -0.5)"/>
            <path class="cls-30" d="M81.51,369s-2.14,6-2.21,7C79,380.77,84.68,386,84.68,386h0s7.45-1.9,9.5-6.18c.42-.89,2.37-6.49,2.37-6.49s.59-1.36-.51-2a34.87,34.87,0,0,1-3.78-2.14,10.54,10.54,0,0,0-2.51-1.62c-.71-.26-1-.11-2.34,0a41.46,41.46,0,0,1-4.44-.12C81.66,367.46,81.51,369,81.51,369Zm1.17-.25,1.09,0a12.93,12.93,0,0,0,3.42,0c2.36-.46,3.09.74,4.22,1.55a20.11,20.11,0,0,0,2.9,1.69c.34.17.65.34.94.5a.86.86,0,0,1,0,.27.19.19,0,0,0,0,.08c-.75,2.14-2,5.77-2.33,6.37-.89,1.86-3.13,3.23-4.86,4.05a24.25,24.25,0,0,1-2.88,1.14,22.72,22.72,0,0,1-2-2.42c-1.12-1.55-2.45-4.12-2.32-6.2a45.49,45.49,0,0,1,1.8-6.77A2.49,2.49,0,0,1,82.68,368.72Z" transform="translate(-0.5 -0.5)"/>
            <path class="cls-31" d="M79.3,376c-.19,2.8,1.66,5.74,3.24,7.71-1.45-1.94-2.91-4.56-2.74-7.06.07-1,2.21-7,2.21-7s.15-1.51,1.46-1.48a39.15,39.15,0,0,0,4.44.11c1.31-.09,1.63-.24,2.34,0a10.34,10.34,0,0,1,2.51,1.62A36.64,36.64,0,0,0,96.54,372a.53.53,0,0,1,.1.06,1.23,1.23,0,0,0-.6-.71,34.87,34.87,0,0,1-3.78-2.14,10.34,10.34,0,0,0-2.51-1.62c-.72-.26-1-.11-2.34,0a39.09,39.09,0,0,1-4.44-.11c-1.31,0-1.46,1.48-1.46,1.48S79.37,374.94,79.3,376Z" transform="translate(-0.5 -0.5)"/>
            <path class="cls-30" d="M86.72,376.08a.5.5,0,0,0,.11.44l-.09.35a.11.11,0,0,0,.07.12l.28.07a.1.1,0,0,0,.12-.07l.09-.35a.46.46,0,0,0,.32-.33.47.47,0,0,0-.33-.57A.48.48,0,0,0,86.72,376.08Z" transform="translate(-0.5 -0.5)"/>
            <path class="cls-30" d="M86.73,373.69l-.18.68,2.06.54.18-.68a1.07,1.07,0,0,0-.76-1.31A1.06,1.06,0,0,0,86.73,373.69Z" transform="translate(-0.5 -0.5)"/>
            <path class="cls-30" d="M83,370.63s-1.3,4.4-1.36,5.15c-.27,3.58,3.71,7.71,3.71,7.71h0s5.28-1.48,6.78-4.69c.31-.67,1.75-4.86,1.75-4.86s.43-1-.35-1.46a23,23,0,0,1-2.65-1.55c-.46-.34-.87-.62-1.21-.83a5.76,5.76,0,0,0-.75-.41h0a2.87,2.87,0,0,0-1.55-.13,23,23,0,0,1-3.13,0C83.3,369.53,83,370.63,83,370.63Zm1.89,3.9a.58.58,0,0,1,.71-.41l.15,0,.18-.69a1.9,1.9,0,1,1,3.68,1l-.18.69.15,0a.58.58,0,0,1,.41.71l-.71,2.67a.59.59,0,0,1-.71.42l-4-1.05a.58.58,0,0,1-.41-.71Z" transform="translate(-0.5 -0.5)"/>
            <path class="cls-31" d="M81.63,375.78c-.2,2.57,1.81,5.43,3,6.83-1.14-1.52-2.62-4-2.45-6.18.06-.75,1.36-5.15,1.36-5.15s.31-1.11,1.23-1.1a23,23,0,0,0,3.13,0,2.87,2.87,0,0,1,1.55.13h0a5.76,5.76,0,0,1,.75.41c.34.21.76.49,1.21.83a20.42,20.42,0,0,0,2.6,1.51.88.88,0,0,0-.44-.61,22.22,22.22,0,0,1-2.66-1.55c-.45-.34-.87-.62-1.21-.83a5.76,5.76,0,0,0-.75-.41h0a2.87,2.87,0,0,0-1.55-.13,24.81,24.81,0,0,1-3.13,0c-.92,0-1.23,1.09-1.23,1.09S81.69,375,81.63,375.78Z" transform="translate(-0.5 -0.5)"/>
          </g>
        </g>
      </g>
      <g id="cabeza">
        <g>
          <path class="cls-5" d="M116.28,305.18c13.76,17.72,55.89,14.34,67.62,13.23s31.62-3.17,38.78-24.77,3.58-54.57-16.11-71.71-72.39-14.34-90.29,8.76S111.51,299,116.28,305.18Z" transform="translate(-0.5 -0.5)"/>
          <path class="cls-16" d="M119.92,235.4c.78-.28,17-12.92,46.5-15.45,10.14-.87,25.94,0,36.09,1.41-1-1.07-15.58-9.49-45.63-6.36C149.55,215.77,132.56,220.35,119.92,235.4Z" transform="translate(-0.5 -0.5)"/>
          <path class="cls-7" d="M173.47,230.17c-9.48.15-19,.82-27.92,4.22l-.21.08c9.28,19.65,10,45.25,4.61,63.56a38.52,38.52,0,0,1-7.9,14.83c16.39,2.89,34.72,1.39,41.85.71,7.76-.74,19.09-1.89,27.94-8.84a44.33,44.33,0,0,0,2.57-6.7c5.5-18.55,4.65-44.58-5-64.33A152.35,152.35,0,0,0,173.47,230.17Z" transform="translate(-0.5 -0.5)"/>
          <path class="cls-32" d="M139.18,247.61c5.47-7.43,20.37-9.37,39-10.49,24.09-1.43,32.24,2.93,34.69,5.71s6.74,16.62,5.82,30.06-1.07,17.49-6.6,20.83-21.5,6.61-31.83,6.87c-19.55.47-29.41-.48-35.95-4.32-3.34-2-7.59-12.54-8.26-25.58S136.35,251.47,139.18,247.61Z" transform="translate(-0.5 -0.5)"/>
          <path class="cls-33" d="M177.54,239.2c-11.6.67-21.67,1.67-28.76,4.18,6.2,17.21,6.24,37.62,1.64,52.73-.06.17-.12.33-.17.51,6.19,1.79,15.07,2.22,29.28,1.88,9.91-.24,25.23-3.3,30.54-6.42a9.39,9.39,0,0,0,4.15-4.33A90,90,0,0,0,211.16,245a4.21,4.21,0,0,0-.34-.44C208.46,241.93,200.65,237.86,177.54,239.2Z" transform="translate(-0.5 -0.5)"/>
          <path class="cls-9" d="M126.52,260c-.32,7.3-4.4,13-9.11,12.84s-8.26-6.3-7.94-13.6,4.41-13,9.11-12.84S126.84,252.67,126.52,260Z" transform="translate(-0.5 -0.5)"/>
          <path class="cls-34" d="M122.79,259.42c-.23,5.13-2.72,9.18-5.58,9.05s-5-4.38-4.75-9.51,2.73-9.18,5.58-9S123,254.3,122.79,259.42Z" transform="translate(-0.5 -0.5)"/>
          <path class="cls-27" d="M122.87,259.81l-.48,0,.48,0a17.91,17.91,0,0,0-2.15-9.73c-1.58-2.71-3.8-4.27-6.25-4.38-5-.22-9.28,5.75-9.61,13.31s3.43,13.88,8.4,14.1h.26C118.37,273.12,122.54,267.23,122.87,259.81Zm-8.44-13.14c2.11.09,4,1.48,5.46,3.9a17,17,0,0,1,2,9.19c-.32,7-4.18,12.57-8.61,12.39s-7.79-6.08-7.48-13.1,4-12.39,8.38-12.39Z" transform="translate(-0.5 -0.5)"/>
          <path class="cls-7" d="M113.84,276.9l3.45.12s1.47,14.34,5.61,22.77,10,11.13,10,11.13-8.86-2.86-14.16-13.79C115,289.26,113.84,276.9,113.84,276.9Z" transform="translate(-0.5 -0.5)"/>
          <path class="cls-35" d="M142.43,248.71v0a1.83,1.83,0,0,0,2.63.62c1.68-1.15,4.24-2.86,5.72-3.66,2.32-1.27,13.82-5.52,13.82-5.52s-11.52.24-21.31,5.56A2.18,2.18,0,0,0,142.43,248.71Z" transform="translate(-0.5 -0.5)"/>
        </g>
        <path class="cls-36" d="M133.39,258.29c0,2.26-1,4.1-2.35,4.1s-2.35-1.84-2.35-4.1,1.05-4.1,2.35-4.1S133.39,256,133.39,258.29Z" transform="translate(-0.5 -0.5)"/>
      </g>
      <g id="ojos">
        <g>
          <rect class="cls-37" x="160.84" y="252.22" width="16.61" height="21.7" rx="5.95"/>
          <rect class="cls-37" x="162.58" y="254.55" width="13.13" height="17.04" rx="5.95"/>
          <rect class="cls-38" x="164.79" y="256.74" width="9.11" height="13.26" rx="3.69"/>
          <path class="cls-39" d="M173.43,262.35H166a.36.36,0,1,1,0-.72h7.48a.36.36,0,0,1,0,.72Z" transform="translate(-0.5 -0.5)"/>
          <path class="cls-39" d="M173.43,263.93H166a.36.36,0,1,1,0-.72h7.48a.36.36,0,0,1,0,.72Z" transform="translate(-0.5 -0.5)"/>
          <path class="cls-39" d="M173.43,265.57H166a.36.36,0,1,1,0-.72h7.48a.36.36,0,1,1,0,.72Z" transform="translate(-0.5 -0.5)"/>
          <path class="cls-39" d="M172.48,259.32H166.9a.36.36,0,0,1,0-.72h5.58a.36.36,0,0,1,0,.72Z" transform="translate(-0.5 -0.5)"/>
          <path class="cls-39" d="M173.43,261H166a.36.36,0,0,1,0-.72h7.48a.36.36,0,0,1,0,.72Z" transform="translate(-0.5 -0.5)"/>
          <path class="cls-39" d="M173.43,267.52H166a.36.36,0,0,1,0-.72h7.48a.36.36,0,0,1,0,.72Z" transform="translate(-0.5 -0.5)"/>
          <path class="cls-39" d="M173.43,269.1H166a.36.36,0,1,1,0-.72h7.48a.36.36,0,0,1,0,.72Z" transform="translate(-0.5 -0.5)"/>
        </g>
        <g>
          <rect class="cls-37" x="190.67" y="251.83" width="16.61" height="21.7" rx="5.95"/>
          <rect class="cls-37" x="192.41" y="254.16" width="13.13" height="17.04" rx="5.95"/>
          <rect class="cls-38" x="194.62" y="256.35" width="9.11" height="13.26" rx="3.69"/>
          <path class="cls-39" d="M203.26,262h-7.48a.36.36,0,1,1,0-.72h7.48a.36.36,0,1,1,0,.72Z" transform="translate(-0.5 -0.5)"/>
          <path class="cls-39" d="M203.26,263.54h-7.48a.36.36,0,0,1,0-.72h7.48a.36.36,0,1,1,0,.72Z" transform="translate(-0.5 -0.5)"/>
          <path class="cls-39" d="M203.26,265.18h-7.48a.36.36,0,0,1,0-.72h7.48a.36.36,0,1,1,0,.72Z" transform="translate(-0.5 -0.5)"/>
          <path class="cls-39" d="M202.31,258.93h-5.57a.36.36,0,1,1,0-.72h5.57a.36.36,0,0,1,0,.72Z" transform="translate(-0.5 -0.5)"/>
          <path class="cls-39" d="M203.26,260.57h-7.48a.36.36,0,0,1,0-.72h7.48a.36.36,0,1,1,0,.72Z" transform="translate(-0.5 -0.5)"/>
          <path class="cls-39" d="M203.26,267.13h-7.48a.36.36,0,0,1-.36-.36.37.37,0,0,1,.36-.37h7.48a.38.38,0,0,1,.37.37A.37.37,0,0,1,203.26,267.13Z" transform="translate(-0.5 -0.5)"/>
          <path class="cls-39" d="M203.26,268.71h-7.48a.36.36,0,0,1-.36-.36.37.37,0,0,1,.36-.37h7.48a.38.38,0,0,1,.37.37A.37.37,0,0,1,203.26,268.71Z" transform="translate(-0.5 -0.5)"/>
        </g>
      </g>
      <path id="boca" class="cls-40" d="M173.11,285.55c7.49,1,20.94,1.7,20.94,1.7s-11.89,1.21-19.65-.13S165,284.52,173.11,285.55Z" transform="translate(-0.5 -0.5)"/>
    </g>
  </g>
</svg>
