<svg xmlns="http://www.w3.org/2000/svg" xmlns:xlink="http://www.w3.org/1999/xlink" width="1024" height="620" viewBox="0 0 1024 620">
  <defs>
    <style>
      .cls-1 {
        isolation: isolate;
      }

      .cls-2 {
        fill: none;
      }

      .cls-3, .cls-4 {
        fill: #51b2fb;
      }

      .cls-3, .cls-37 {
        opacity: 0.1;
      }

      .cls-4 {
        opacity: 0.2;
      }

      .cls-5 {
        fill: #e3ebfc;
      }

      .cls-6 {
        fill: #ccddfa;
      }

      .cls-7 {
        fill: #fafbff;
      }

      .cls-8 {
        fill: #9fbcfb;
      }

      .cls-9 {
        fill: #b8d0f9;
      }

      .cls-10, .cls-27, .cls-36 {
        fill: #207bff;
      }

      .cls-10, .cls-28 {
        opacity: 0.4;
      }

      .cls-11 {
        fill: #004bff;
        opacity: 0.5;
        mix-blend-mode: multiply;
      }

      .cls-12 {
        fill: #c5d8fa;
      }

      .cls-13 {
        fill: url(#_ÂÁ_Ï_ÌÌ_È_ËÂÌÚ_30);
      }

      .cls-14 {
        fill: #4aebff;
      }

      .cls-15 {
        fill: #80a7f6;
      }

      .cls-16, .cls-35 {
        fill: #fff;
      }

      .cls-17 {
        fill: #bef9ff;
      }

      .cls-18 {
        fill: url(#linear-gradient);
      }

      .cls-19 {
        fill: #ec1c24;
      }

      .cls-20 {
        fill: url(#linear-gradient-2);
      }

      .cls-21 {
        fill: url(#linear-gradient-3);
      }

      .cls-22 {
        fill: url(#linear-gradient-4);
      }

      .cls-23 {
        fill: url(#linear-gradient-5);
      }

      .cls-24 {
        fill: url(#linear-gradient-6);
      }

      .cls-25 {
        fill: url(#linear-gradient-7);
      }

      .cls-26 {
        fill: #93b4fb;
      }

      .cls-28 {
        mix-blend-mode: lighten;
        fill: url(#radial-gradient);
      }

      .cls-29 {
        fill: #00ffda;
      }

      .cls-30 {
        fill: #7fd1ca;
      }

      .cls-31 {
        fill: #1e1e1e;
      }

      .cls-32 {
        fill: url(#_ÂÁ_Ï_ÌÌ_È_ËÂÌÚ_14);
      }

      .cls-33 {
        fill: url(#_ÂÁ_Ï_ÌÌ_È_ËÂÌÚ_18);
      }

      .cls-34 {
        fill: #4880f8;
      }

      .cls-35 {
        opacity: 0.8;
      }

      .cls-36 {
        opacity: 0.72;
      }

      .cls-37, .cls-38, .cls-39, .cls-40 {
        fill: #3ae6fb;
      }

      .cls-38 {
        opacity: 0.3;
      }

      .cls-40 {
        opacity: 0.7;
      }
    </style>
    <radialGradient id="_ÂÁ_Ï_ÌÌ_È_ËÂÌÚ_30" data-name="¡ÂÁ˚ÏˇÌÌ˚È „‡‰ËÂÌÚ 30" cx="4454.43" cy="484.39" r="7.08" gradientTransform="translate(-4284.51)" gradientUnits="userSpaceOnUse">
      <stop offset="0" stop-color="#4aebff"/>
      <stop offset="1" stop-color="#00709e"/>
    </radialGradient>
    <linearGradient id="linear-gradient" x1="136.36" y1="360.73" x2="136.36" y2="399.77" gradientTransform="translate(45.19)" gradientUnits="userSpaceOnUse">
      <stop offset="0.02" stop-color="#dd2a21"/>
      <stop offset="0.06" stop-color="#c8201b"/>
      <stop offset="0.1" stop-color="#b71717"/>
      <stop offset="0.15" stop-color="#ac1113"/>
      <stop offset="0.22" stop-color="#a50e12"/>
      <stop offset="0.43" stop-color="#a30d11"/>
      <stop offset="0.79" stop-color="#6b0006"/>
    </linearGradient>
    <linearGradient id="linear-gradient-2" x1="125.02" y1="362.47" x2="125.02" y2="390.49" gradientTransform="translate(45.19)" gradientUnits="userSpaceOnUse">
      <stop offset="0" stop-color="#ad1a27"/>
      <stop offset="0.08" stop-color="#9e151f"/>
      <stop offset="0.28" stop-color="#7d090e"/>
      <stop offset="0.44" stop-color="#680304"/>
      <stop offset="0.56" stop-color="#610000"/>
      <stop offset="0.73" stop-color="#520000"/>
      <stop offset="1" stop-color="#3f0000"/>
    </linearGradient>
    <linearGradient id="linear-gradient-3" x1="802.24" y1="376.9" x2="821.22" y2="376.9" gradientTransform="matrix(-1, 0, 0, 1, 1015.73, 0)" gradientUnits="userSpaceOnUse">
      <stop offset="0" stop-color="#be1349"/>
      <stop offset="0.24" stop-color="#be124e"/>
      <stop offset="0.25" stop-color="#be124e"/>
      <stop offset="1" stop-color="#7a0025"/>
    </linearGradient>
    <linearGradient id="linear-gradient-4" x1="797.05" y1="386.21" x2="821.29" y2="386.21" gradientTransform="matrix(-1, 0, 0, 1, 1015.73, 0)" gradientUnits="userSpaceOnUse">
      <stop offset="0" stop-color="#282881"/>
      <stop offset="0.27" stop-color="#26257d"/>
      <stop offset="0.55" stop-color="#1f1b70"/>
      <stop offset="0.84" stop-color="#150c5b"/>
      <stop offset="1" stop-color="#0d004c"/>
    </linearGradient>
    <linearGradient id="linear-gradient-5" x1="802.78" y1="386.21" x2="821.21" y2="386.21" xlink:href="#linear-gradient-3"/>
    <linearGradient id="linear-gradient-6" x1="806.52" y1="376.82" x2="829.67" y2="376.82" xlink:href="#linear-gradient-4"/>
    <linearGradient id="linear-gradient-7" x1="142.7" y1="385.28" x2="142.7" y2="372.02" gradientTransform="translate(45.19)" gradientUnits="userSpaceOnUse">
      <stop offset="0" stop-color="#ed2d24"/>
      <stop offset="0.12" stop-color="#ed2824"/>
      <stop offset="0.25" stop-color="#ec1c24"/>
      <stop offset="1" stop-color="#74020d"/>
    </linearGradient>
    <radialGradient id="radial-gradient" cx="2988.65" cy="634.55" r="14.99" gradientTransform="matrix(0.74, 0.02, -0.03, 0.82, -2121.15, -206.49)" gradientUnits="userSpaceOnUse">
      <stop offset="0" stop-color="#00ddde" stop-opacity="0.52"/>
      <stop offset="0.09" stop-color="#2de6e7" stop-opacity="0.65"/>
      <stop offset="0.2" stop-color="#63f1f1" stop-opacity="0.8"/>
      <stop offset="0.3" stop-color="#8af8f9" stop-opacity="0.91"/>
      <stop offset="0.38" stop-color="#a2fdfd" stop-opacity="0.98"/>
      <stop offset="0.43" stop-color="#abffff"/>
      <stop offset="0.46" stop-color="#9ffcfd"/>
      <stop offset="0.51" stop-color="#7ff6f6"/>
      <stop offset="0.58" stop-color="#4aebeb"/>
      <stop offset="0.66" stop-color="#03dcdd"/>
      <stop offset="0.66" stop-color="#00dbdc"/>
      <stop offset="0.69" stop-color="#08dcdd" stop-opacity="0.97"/>
      <stop offset="0.74" stop-color="#1fdfe0" stop-opacity="0.88"/>
      <stop offset="0.8" stop-color="#44e5e5" stop-opacity="0.73"/>
      <stop offset="0.87" stop-color="#78eced" stop-opacity="0.53"/>
      <stop offset="0.94" stop-color="#baf5f6" stop-opacity="0.27"/>
      <stop offset="1" stop-color="#fff" stop-opacity="0"/>
    </radialGradient>
    <linearGradient id="_ÂÁ_Ï_ÌÌ_È_ËÂÌÚ_14" data-name="¡ÂÁ˚ÏˇÌÌ˚È „‡‰ËÂÌÚ 14" x1="4363.67" y1="490.73" x2="4442.45" y2="490.73" gradientTransform="translate(-4259.86 13.43) rotate(-2.88)" gradientUnits="userSpaceOnUse">
      <stop offset="0" stop-color="#003a6b"/>
      <stop offset="1" stop-color="#00204c"/>
    </linearGradient>
    <linearGradient id="_ÂÁ_Ï_ÌÌ_È_ËÂÌÚ_18" data-name="¡ÂÁ˚ÏˇÌÌ˚È „‡‰ËÂÌÚ 18" x1="4429.21" y1="249.18" x2="4469.13" y2="316.43" gradientTransform="translate(-4284.51)" gradientUnits="userSpaceOnUse">
      <stop offset="0" stop-color="#cbd7e1"/>
      <stop offset="0.05" stop-color="#aec0d0"/>
      <stop offset="0.15" stop-color="#7998b2"/>
      <stop offset="0.26" stop-color="#4e7698"/>
      <stop offset="0.35" stop-color="#2c5c85"/>
      <stop offset="0.44" stop-color="#144976"/>
      <stop offset="0.53" stop-color="#053e6e"/>
      <stop offset="0.6" stop-color="#003a6b"/>
      <stop offset="1" stop-color="#00204c"/>
    </linearGradient>
  </defs>
  <title>robot</title>
  <g class="cls-1">
    <g id="prosabot">
      <g id="fondo">
        <rect class="cls-2" width="1024" height="620"/>
      </g>
      <g id="sombra">
        <ellipse class="cls-3" cx="150.95" cy="525.04" rx="56.78" ry="12.75"/>
        <ellipse class="cls-4" cx="150.95" cy="525.04" rx="44.23" ry="8.11"/>
        <path class="cls-4" d="M177.58,525c0,2.7-11.92,4.88-26.63,4.88s-26.63-2.18-26.63-4.88,11.92-4.88,26.63-4.88S177.58,522.34,177.58,525Z"/>
      </g>
      <g id="brazoIzquierdo">
        <g>
          <path class="cls-5" d="M257.2,386.65c-23.67-32.55-45.06-41.6-49.89-43.31a3.26,3.26,0,0,0-2.18,0c-2.6.92-8.81,4.36-10.9,16.6-1.44,8.46,4.9,18.42,5.54,18.76,6.57,3.58,47.94,26.18,60.1,34.77C273.09,422.79,267.31,400.56,257.2,386.65Z"/>
          <path class="cls-6" d="M194.21,360a31.22,31.22,0,0,1,3-9.39,37,37,0,0,0-.81,3.69c-1.82,10.66,3.4,15.13,7.1,18.13,13.24,10.75,44.7,27.72,57.11,41.61-.25-.16-.5-.33-.76-.52-12.16-8.59-53.53-31.18-60.1-34.76C199.11,378.39,192.77,368.44,194.21,360Z"/>
          <path class="cls-7" d="M216,354.61c22.2,5,46.58,45.95,46.58,45.95s-24.48-24.92-38.48-33.7S208.46,352.91,216,354.61Z"/>
          <path class="cls-6" d="M252.56,408.31a51.66,51.66,0,0,1,3,6.13c.19.6-1.3,4.52-1.45,4.24-1.39-2.51-9.83-15-13.87-17.4C238.83,400.44,251.34,405.85,252.56,408.31Z"/>
        </g>
        <path class="cls-8" d="M215.94,370.67c6.87-9.89,8.9-20.38,4.55-23.43s-13.45,2.49-20.31,12.39-8.79,20.24-4.54,23.43C201.77,387.67,209.08,380.56,215.94,370.67Z"/>
      </g>
      <g id="torso">
        <path class="cls-5" d="M99.6,331.86c-5.5-.35-24.89,19.1-19,38s38.88,81.84,46.36,103.89,12,27.48,22.61,29.48,26.73,2.73,45.37-36.19,21.51-82.64,22.35-103.41-1.32-29-8.59-31.39C191.73,326.69,99.6,331.86,99.6,331.86Z"/>
        <path class="cls-7" d="M187.37,462.42c14.45-40.94,12.71-85,11.37-105.81-.9-13.87-2.53-22.05-5.72-26.44-15.4-.86-37.89-.49-57,.13,10.19,26.88,25.25,72.15,27.76,118.79,1.67,31.12-2.62,46.32-8.57,54.11C165,501.26,176.61,492.89,187.37,462.42Z"/>
        <path class="cls-9" d="M210.27,333.94c0,4-28.51,10.3-57.27,10.35s-57.31-6.12-57.31-10.16,28.52-4.4,57.28-4.45S210.27,329.91,210.27,333.94Z"/>
        <path class="cls-10" d="M192.88,334.77c0,2.79-19.64,7.12-39.45,7.16s-39.48-4.24-39.48-7,19.64-3,39.46-3.08S192.88,332,192.88,334.77Z"/>
        <path class="cls-11" d="M180.82,336.22c0,1.06-13.54,2.42-26.74,2.44s-25.84-1.29-25.84-2.36,12.63-1.49,25.83-1.51S180.82,335.15,180.82,336.22Z"/>
        <path class="cls-12" d="M138.75,478.28c-3.06-16.5-7.62-70.47-18.46-108.55-5.44-19.09-18.24-32.56-30.63-28.29-8.79,3-12.27,18.18-9.11,28.39,5.84,18.87,38.88,81.84,46.36,103.89s12,27.48,22.61,29.48c5.48,1,12.41,1.71,20.38-3.17C159.11,501.72,143.81,505.61,138.75,478.28Z"/>
        <path class="cls-13" d="M176.82,486.32a19.49,19.49,0,0,1-6.55,1.08,30.27,30.27,0,0,1-7.33-.54c-1.37-.34-2.57-1.22-2.56-2.72h0a2.65,2.65,0,0,1,2.56-2.72s5.64.63,7,.62a51.54,51.54,0,0,0,7.12-.67c1.41,0,2.73.41,2.31,2.44C179.19,484.75,178.54,485.68,176.82,486.32Z"/>
        <path class="cls-14" d="M175.92,486a20.42,20.42,0,0,1-5.66.77,32.14,32.14,0,0,1-6.34-.39c-1.19-.24-2.22-.87-2.22-1.94h0a2.1,2.1,0,0,1,2.22-1.94s4.88.45,6.07.44a52.53,52.53,0,0,0,6.15-.47c1.22,0,2.37.29,2,1.74C178,484.9,177.4,485.56,175.92,486Z"/>
        <path class="cls-15" d="M168.68,473.87c-13,0-28.84-2.81-46-9.85a.47.47,0,0,1-.25-.6.46.46,0,0,1,.6-.25c31.94,13.13,59.42,11.46,71.44,4.36a.45.45,0,0,1,.62.16.46.46,0,0,1-.16.63C189.23,471.7,180.09,473.87,168.68,473.87Z"/>
        <path class="cls-16" d="M168.35,472.85c-13,0-28.85-2.81-46-9.86a.45.45,0,0,1-.25-.6.46.46,0,0,1,.6-.25c31.93,13.13,59.41,11.46,71.43,4.36a.46.46,0,1,1,.46.79C188.89,470.67,179.75,472.85,168.35,472.85Z"/>
        <path class="cls-7" d="M214.83,342.51c2.45,49.9-4.75,73.52-4.75,73.52s6.88-37.71.54-74.16C209.75,336.88,214.44,334.71,214.83,342.51Z"/>
        <path class="cls-16" d="M100.09,339s5.67,3.42,26.44,5.35,48.09,1.56,48.09,1.56-25.19,3.33-48.2.86S100.09,339,100.09,339Z"/>
        <path class="cls-17" d="M173.31,482.8c-1,.08-2.17.15-3.32.16s-6.07-.44-6.07-.44a2.31,2.31,0,0,0-.46.05l2.24,4.08c1.22.11,2.74.16,4.56.14a21,21,0,0,0,5.27-.67Z"/>
        <g>
          <path class="cls-18" d="M168.32,376.7a17.62,17.62,0,0,1,11-16.33,17.78,17.78,0,0,1,2,.25,16.23,16.23,0,0,1,13.5,15.46c0,.18,0,.35,0,.53v.2a10,10,0,0,0-13.34-9.49c1-.36,1-.36-.06,0a9.65,9.65,0,0,0-13,9.36v.09c0,5.43,3.9,9.87,9.51,9.87a9.78,9.78,0,0,0,3.1-.5A10,10,0,0,0,194.78,377a16.06,16.06,0,0,1-13.4,15.79,19.45,19.45,0,0,1-2,.26A17.63,17.63,0,0,1,168.32,376.7Z"/>
          <path class="cls-19" d="M174.67,376.82a10.05,10.05,0,0,0,6.33,9.34,9.78,9.78,0,0,1-3.1.5c-5.61,0-9.51-4.44-9.51-9.87v-.09a9.65,9.65,0,0,1,13-9.36c1-.38,1.06-.38.06,0A10.05,10.05,0,0,0,174.67,376.82Z"/>
          <path class="cls-20" d="M177.9,360.31c.48,0,.95,0,1.41.06a17.63,17.63,0,0,0,0,32.67c-.44,0-.89,0-1.34,0-9.78,0-16.89-7.38-16.89-16.39v-.09C161.1,367.6,168.12,360.31,177.9,360.31Z"/>
          <path class="cls-21" d="M194.78,376.82v0Z"/>
          <path class="cls-22" d="M181.27,386.07c1.06.37,1,.38,0,0Z"/>
          <path class="cls-23" d="M181.27,386.07c1.06.37,1,.38,0,0Z"/>
          <path class="cls-24" d="M184.73,386.88a10,10,0,0,1-3.73-.72l.27-.09c1,.38,1.06.37,0,0a9.83,9.83,0,0,0,6.48-9.37v-.09a9.64,9.64,0,0,0-6.36-9.27l.05,0a10,10,0,0,1,13.34,9.49V377A10,10,0,0,1,184.73,386.88Z"/>
          <path class="cls-25" d="M184.73,386.88a10,10,0,0,1-3.73-.72l.27-.09c1,.38,1.06.37,0,0a9.83,9.83,0,0,0,6.48-9.37v-.09a9.64,9.64,0,0,0-6.36-9.27l.05,0a10,10,0,0,1,13.34,9.49V377A10,10,0,0,1,184.73,386.88Z"/>
        </g>
      </g>
      <g id="brazoDerecho">
        <path class="cls-26" d="M111.21,369c4,13.77.82,26.75-7,29s-17.35-7.1-21.31-20.87-.82-26.75,7-29S107.25,355.25,111.21,369Z"/>
        <path class="cls-27" d="M101.71,394.61a.49.49,0,0,1-.51-.46.5.5,0,0,1,.46-.53,5.72,5.72,0,0,0,4.6-3.21c3.25-5.58,2.62-16.12-1.46-24.51-4.87-10-12.66-14-17.08-12a.5.5,0,0,1-.66-.25.49.49,0,0,1,.24-.66c5.56-2.56,13.81,3,18.4,12.46,4.21,8.66,4.82,19.6,1.42,25.44a6.75,6.75,0,0,1-5.39,3.7Z"/>
        <g>
          <path class="cls-5" d="M58.92,420.38c3.29-40.17,17.15-58.88,20.45-62.82a3.27,3.27,0,0,1,1.9-1.12c2.76-.53,10-.72,18.39,8.8,5.78,6.57,5.56,18.4,5.19,19-3.84,6.44-27.9,47-33.94,60.64C64.35,459.71,57.52,437.55,58.92,420.38Z"/>
          <path class="cls-6" d="M99.71,365.27a33.05,33.05,0,0,0-7.63-6.58c.87.82,1.76,1.73,2.67,2.77,7.29,8.29,5.11,14.81,3.49,19.28-5.83,16-24.25,46.72-27.67,65,.13-.27.26-.54.39-.84,6-13.61,30.1-54.2,33.93-60.64C105.26,383.68,105.48,371.85,99.71,365.27Z"/>
          <path class="cls-7" d="M77.77,371.74C61,387.33,61.63,435.16,61.63,435.16s8.08-34,15.62-48.71S83.48,366.42,77.77,371.74Z"/>
          <path class="cls-6" d="M74.55,436.74a51.46,51.46,0,0,0,.65,6.84c.15.61,3.55,3.24,3.53,2.92-.13-2.88.56-18,2.82-22.1C82.35,423,74.3,434,74.55,436.74Z"/>
          <path class="cls-15" d="M81.93,424.83a.46.46,0,0,1-.39-.21c-4.41-7.06-13.53-12.32-21.75-8.16a.46.46,0,0,1-.42-.82c8.71-4.41,18.33,1.09,22.95,8.49a.45.45,0,0,1-.15.63A.42.42,0,0,1,81.93,424.83Z"/>
        </g>
        <g>
          <path class="cls-28" d="M87.49,383.12c-.21,6.81-5.35,12.18-11.48,12s-10.94-5.86-10.73-12.67,5.34-12.17,11.48-12S87.69,376.31,87.49,383.12Z"/>
          <g>
            <path class="cls-29" d="M68.78,383.83c-.15,2.3,1.14,4.69,2.45,6.51a22.86,22.86,0,0,0,2.67,3.08s7.09-1.81,9-5.88c.4-.85,2.26-6.18,2.26-6.18s.56-1.29-.49-1.88a32.08,32.08,0,0,1-3.59-2,10.39,10.39,0,0,0-2.39-1.54c-.68-.24-1-.1-2.23,0a37.58,37.58,0,0,1-4.22-.11c-1.25,0-1.4,1.4-1.4,1.4S68.85,382.87,68.78,383.83Z"/>
            <path class="cls-30" d="M70.88,377.19s-2,5.68-2.1,6.64c-.29,4.59,5.12,9.59,5.12,9.59h0s7.08-1.82,9-5.88c.4-.85,2.26-6.18,2.26-6.18s.56-1.29-.49-1.88a32.08,32.08,0,0,1-3.59-2,10.18,10.18,0,0,0-2.4-1.54c-.67-.24-1-.1-2.22,0a37.58,37.58,0,0,1-4.22-.11C71,375.75,70.88,377.19,70.88,377.19ZM72,377l1,0a12.53,12.53,0,0,0,3.25,0c2.25-.43,2.94.71,4,1.48a20.7,20.7,0,0,0,2.76,1.61l.9.47a.85.85,0,0,1,0,.26.15.15,0,0,0,0,.07c-.71,2-1.94,5.49-2.22,6.07-.84,1.76-3,3.06-4.62,3.85a22.09,22.09,0,0,1-2.73,1.08,21.17,21.17,0,0,1-1.91-2.3c-1.06-1.48-2.33-3.92-2.2-5.9a43.65,43.65,0,0,1,1.7-6.44Z"/>
            <path class="cls-31" d="M68.78,383.84c-.17,2.66,1.58,5.46,3.08,7.33-1.37-1.85-2.76-4.34-2.6-6.72a68.94,68.94,0,0,1,2.1-6.64s.15-1.44,1.4-1.41a37.51,37.51,0,0,0,4.22.11c1.24-.09,1.54-.23,2.22,0a9.85,9.85,0,0,1,2.39,1.54,32.86,32.86,0,0,0,3.6,2l.09.06a1.14,1.14,0,0,0-.57-.67,34,34,0,0,1-3.59-2,10.39,10.39,0,0,0-2.39-1.54c-.68-.25-1-.11-2.23,0a35.43,35.43,0,0,1-4.22-.1c-1.25,0-1.4,1.4-1.4,1.4S68.85,382.87,68.78,383.84Z"/>
            <path class="cls-30" d="M75.85,384a.41.41,0,0,0,.1.41l-.08.34a.08.08,0,0,0,.06.11l.27.07a.09.09,0,0,0,.11-.06l.09-.34a.43.43,0,0,0,.3-.31.44.44,0,0,0-.32-.54A.43.43,0,0,0,75.85,384Z"/>
            <path class="cls-30" d="M75.85,381.68l-.17.65,2,.52.17-.65a1,1,0,1,0-2-.52Z"/>
            <path class="cls-30" d="M72.29,378.77S71.06,383,71,383.67c-.26,3.41,3.53,7.33,3.53,7.33h0s5-1.41,6.45-4.46c.29-.64,1.66-4.63,1.66-4.63s.41-1-.32-1.39a22.8,22.8,0,0,1-2.53-1.47c-.43-.32-.83-.59-1.15-.79a5.11,5.11,0,0,0-.72-.39h0a2.77,2.77,0,0,0-1.48-.12,20.64,20.64,0,0,1-3,0C72.59,377.72,72.29,378.77,72.29,378.77Zm1.81,3.72a.55.55,0,0,1,.67-.4l.14,0,.17-.65a1.81,1.81,0,1,1,3.5.92l-.17.65.14,0a.54.54,0,0,1,.39.67l-.67,2.55a.57.57,0,0,1-.67.4l-3.78-1a.55.55,0,0,1-.39-.68Z"/>
            <path class="cls-31" d="M71,383.68c-.19,2.44,1.71,5.16,2.8,6.49-1.09-1.45-2.49-3.77-2.33-5.88,0-.71,1.29-4.9,1.29-4.9s.3-1.05,1.17-1a22.49,22.49,0,0,0,3,0,2.67,2.67,0,0,1,1.47.13h0a6.55,6.55,0,0,1,.72.39c.32.2.72.46,1.15.78a17.91,17.91,0,0,0,2.47,1.44.85.85,0,0,0-.42-.58,22.8,22.8,0,0,1-2.53-1.47c-.43-.32-.82-.59-1.15-.79a5.81,5.81,0,0,0-.71-.39h0a2.6,2.6,0,0,0-1.47-.12,22.2,22.2,0,0,1-3,0c-.88,0-1.18,1-1.18,1S71.06,383,71,383.68Z"/>
          </g>
        </g>
      </g>
      <g id="cabeza">
        <g>
          <path class="cls-5" d="M104,316.51c13.09,16.86,53.16,13.65,64.32,12.58s30.08-3,36.89-23.56,3.41-51.91-15.32-68.21S121,223.68,104,245.65,99.43,310.67,104,316.51Z"/>
          <path class="cls-16" d="M107.42,250.13c.75-.26,16.23-12.29,44.24-14.69,9.65-.83,24.68,0,34.33,1.33-1-1-14.82-9-43.4-6C135.61,231.45,119.45,235.82,107.42,250.13Z"/>
          <path class="cls-7" d="M158.37,245.15c-9,.15-18.06.79-26.56,4l-.2.08c8.83,18.69,9.55,43,4.38,60.46a36.7,36.7,0,0,1-7.51,14.11c15.59,2.75,33,1.32,39.81.67,7.38-.7,18.16-1.8,26.58-8.4a42.4,42.4,0,0,0,2.44-6.38c5.24-17.64,4.43-42.41-4.73-61.19A145.62,145.62,0,0,0,158.37,245.15Z"/>
          <path class="cls-32" d="M125.75,261.75c5.2-7.07,19.37-8.92,37.13-10,22.91-1.36,30.66,2.78,33,5.43s6.4,15.81,5.53,28.6-1,16.63-6.28,19.81-20.45,6.29-30.27,6.53c-18.6.46-28-.45-34.2-4.11-3.18-1.86-7.22-11.92-7.86-24.33S123.06,265.42,125.75,261.75Z"/>
          <path class="cls-33" d="M162.24,253.75c-11,.64-20.62,1.59-27.36,4,5.9,16.37,5.94,35.79,1.56,50.16-.05.17-.11.32-.16.49,5.89,1.7,14.33,2.11,27.86,1.79,9.42-.23,24-3.14,29-6.11a9,9,0,0,0,4-4.12,85.57,85.57,0,0,0-2.92-40.69,4.15,4.15,0,0,0-.32-.42C191.65,256.34,184.22,252.47,162.24,253.75Z"/>
          <path class="cls-8" d="M113.71,273.5c-.31,6.95-4.19,12.42-8.67,12.22s-7.86-6-7.55-12.94,4.19-12.41,8.67-12.21S114,266.56,113.71,273.5Z"/>
          <path class="cls-34" d="M110.16,273c-.22,4.88-2.59,8.73-5.31,8.61s-4.74-4.17-4.52-9,2.59-8.74,5.31-8.62S110.38,268.11,110.16,273Z"/>
          <path class="cls-27" d="M110.23,273.35l-.46,0,.46,0a17,17,0,0,0-2-9.25c-1.51-2.59-3.62-4.06-5.94-4.17-4.71-.21-8.83,5.47-9.15,12.66s3.26,13.21,8,13.42h.25C106,286,109.92,280.41,110.23,273.35Zm-8-12.5c2,.09,3.85,1.41,5.2,3.71a16.23,16.23,0,0,1,1.92,8.75c-.3,6.68-4,11.95-8.19,11.78s-7.41-5.78-7.11-12.46,3.84-11.79,8-11.79Z"/>
          <path class="cls-7" d="M101.64,289.61l3.29.11s1.4,13.65,5.33,21.67S119.79,322,119.79,322s-8.42-2.72-13.46-13.12C102.7,301.37,101.64,289.61,101.64,289.61Z"/>
          <path class="cls-35" d="M128.84,262.79v0a1.74,1.74,0,0,0,2.5.6c1.6-1.1,4-2.73,5.44-3.49,2.21-1.2,13.15-5.25,13.15-5.25s-11,.23-20.28,5.29A2.08,2.08,0,0,0,128.84,262.79Z"/>
        </g>
        <path class="cls-36" d="M120.24,271.91c0,2.15-1,3.9-2.24,3.9s-2.23-1.75-2.23-3.9,1-3.91,2.23-3.91S120.24,269.75,120.24,271.91Z"/>
      </g>
      <g id="ojos">
        <g>
          <rect class="cls-37" x="146.83" y="266.61" width="15.8" height="20.64" rx="5.66"/>
          <rect class="cls-37" x="148.49" y="268.83" width="12.49" height="16.21" rx="5.66"/>
          <rect class="cls-38" x="150.59" y="270.91" width="8.67" height="12.62" rx="3.51"/>
          <path class="cls-39" d="M158.33,275.77h-7.12a.34.34,0,0,1-.34-.34.35.35,0,0,1,.34-.35h7.12a.35.35,0,0,1,.35.35A.35.35,0,0,1,158.33,275.77Z"/>
          <path class="cls-39" d="M158.33,277.27h-7.12a.34.34,0,0,1,0-.68h7.12a.34.34,0,1,1,0,.68Z"/>
          <path class="cls-39" d="M158.33,278.83h-7.12a.34.34,0,0,1,0-.68h7.12a.34.34,0,1,1,0,.68Z"/>
          <path class="cls-39" d="M157.42,272.89h-5.3a.35.35,0,0,1-.34-.35.34.34,0,0,1,.34-.34h5.3a.35.35,0,0,1,.35.34A.35.35,0,0,1,157.42,272.89Z"/>
          <path class="cls-39" d="M158.33,274.45h-7.12a.35.35,0,0,1-.34-.35.34.34,0,0,1,.34-.34h7.12a.35.35,0,0,1,.35.34A.35.35,0,0,1,158.33,274.45Z"/>
          <path class="cls-39" d="M158.33,280.69h-7.12a.35.35,0,0,1-.34-.35.34.34,0,0,1,.34-.34h7.12a.35.35,0,0,1,.35.34A.35.35,0,0,1,158.33,280.69Z"/>
          <path class="cls-39" d="M158.33,282.19h-7.12a.34.34,0,0,1-.34-.34.35.35,0,0,1,.34-.35h7.12a.35.35,0,0,1,.35.35A.35.35,0,0,1,158.33,282.19Z"/>
        </g>
        <g>
          <rect class="cls-37" x="175.21" y="266.23" width="15.8" height="20.64" rx="5.66"/>
          <rect class="cls-37" x="176.86" y="268.45" width="12.49" height="16.21" rx="5.66"/>
          <rect class="cls-38" x="178.97" y="270.54" width="8.67" height="12.62" rx="3.51"/>
          <path class="cls-39" d="M186.71,275.4h-7.12a.35.35,0,0,1-.34-.35.34.34,0,0,1,.34-.34h7.12a.35.35,0,0,1,.35.34A.35.35,0,0,1,186.71,275.4Z"/>
          <path class="cls-39" d="M186.71,276.9h-7.12a.34.34,0,0,1-.34-.34.35.35,0,0,1,.34-.35h7.12a.35.35,0,0,1,.35.35A.35.35,0,0,1,186.71,276.9Z"/>
          <path class="cls-39" d="M186.71,278.46h-7.12a.34.34,0,0,1-.34-.34.35.35,0,0,1,.34-.35h7.12a.35.35,0,0,1,.35.35A.35.35,0,0,1,186.71,278.46Z"/>
          <path class="cls-39" d="M185.8,272.52h-5.3a.35.35,0,0,1-.34-.35.34.34,0,0,1,.34-.34h5.3a.35.35,0,0,1,.35.34A.35.35,0,0,1,185.8,272.52Z"/>
          <path class="cls-39" d="M186.71,274.08h-7.12a.35.35,0,0,1-.34-.35.34.34,0,0,1,.34-.34h7.12a.35.35,0,0,1,.35.34A.35.35,0,0,1,186.71,274.08Z"/>
          <path class="cls-39" d="M186.71,280.31h-7.12a.34.34,0,0,1,0-.68h7.12a.34.34,0,1,1,0,.68Z"/>
          <path class="cls-39" d="M186.71,281.82h-7.12a.35.35,0,0,1-.34-.35.34.34,0,0,1,.34-.34h7.12a.35.35,0,0,1,.35.34A.35.35,0,0,1,186.71,281.82Z"/>
        </g>
      </g>
      <path id="boca" class="cls-40" d="M158,297.84c7.13.91,19.92,1.61,19.92,1.61s-11.31,1.15-18.69-.12S150.35,296.86,158,297.84Z"/>
    </g>
  </g>
</svg>
