<svg xmlns="http://www.w3.org/2000/svg" xmlns:xlink="http://www.w3.org/1999/xlink" width="1024" height="620" viewBox="0 0 1024 620">
  <defs>
    <style>
      .cls-1 {
        isolation: isolate;
      }

      .cls-2 {
        fill: none;
      }

      .cls-3, .cls-4 {
        fill: #51b2fb;
      }

      .cls-3, .cls-37 {
        opacity: 0.1;
      }

      .cls-4 {
        opacity: 0.2;
      }

      .cls-5 {
        fill: #e3ebfc;
      }

      .cls-6 {
        fill: #ccddfa;
      }

      .cls-7 {
        fill: #fafbff;
      }

      .cls-8 {
        fill: #80a7f6;
      }

      .cls-9 {
        fill: #9fbcfb;
      }

      .cls-10 {
        fill: #b8d0f9;
      }

      .cls-11, .cls-27, .cls-36 {
        fill: #207bff;
      }

      .cls-11, .cls-28 {
        opacity: 0.4;
      }

      .cls-12 {
        fill: #004bff;
        opacity: 0.5;
        mix-blend-mode: multiply;
      }

      .cls-13 {
        fill: #c5d8fa;
      }

      .cls-14 {
        fill: url(#_ÂÁ_Ï_ÌÌ_È_ËÂÌÚ_30);
      }

      .cls-15 {
        fill: #4aebff;
      }

      .cls-16, .cls-35 {
        fill: #fff;
      }

      .cls-17 {
        fill: #bef9ff;
      }

      .cls-18 {
        fill: url(#linear-gradient);
      }

      .cls-19 {
        fill: #ec1c24;
      }

      .cls-20 {
        fill: url(#linear-gradient-2);
      }

      .cls-21 {
        fill: url(#linear-gradient-3);
      }

      .cls-22 {
        fill: url(#linear-gradient-4);
      }

      .cls-23 {
        fill: url(#linear-gradient-5);
      }

      .cls-24 {
        fill: url(#linear-gradient-6);
      }

      .cls-25 {
        fill: url(#linear-gradient-7);
      }

      .cls-26 {
        fill: #93b4fb;
      }

      .cls-28 {
        mix-blend-mode: lighten;
        fill: url(#radial-gradient);
      }

      .cls-29 {
        fill: #00ffda;
      }

      .cls-30 {
        fill: #7fd1ca;
      }

      .cls-31 {
        fill: #1e1e1e;
      }

      .cls-32 {
        fill: url(#_ÂÁ_Ï_ÌÌ_È_ËÂÌÚ_14);
      }

      .cls-33 {
        fill: url(#_ÂÁ_Ï_ÌÌ_È_ËÂÌÚ_18);
      }

      .cls-34 {
        fill: #4880f8;
      }

      .cls-35 {
        opacity: 0.8;
      }

      .cls-36 {
        opacity: 0.72;
      }

      .cls-37, .cls-38, .cls-39, .cls-40 {
        fill: #3ae6fb;
      }

      .cls-38 {
        opacity: 0.3;
      }

      .cls-40 {
        opacity: 0.7;
      }
    </style>
    <radialGradient id="_ÂÁ_Ï_ÌÌ_È_ËÂÌÚ_30" data-name="¡ÂÁ˚ÏˇÌÌ˚È „‡‰ËÂÌÚ 30" cx="4440.05" cy="293.47" r="6.19" gradientTransform="translate(-4284.51)" gradientUnits="userSpaceOnUse">
      <stop offset="0" stop-color="#4aebff"/>
      <stop offset="1" stop-color="#00709e"/>
    </radialGradient>
    <linearGradient id="linear-gradient" x1="120.5" y1="185.42" x2="120.5" y2="219.53" gradientTransform="translate(45.19)" gradientUnits="userSpaceOnUse">
      <stop offset="0.02" stop-color="#dd2a21"/>
      <stop offset="0.06" stop-color="#c8201b"/>
      <stop offset="0.1" stop-color="#b71717"/>
      <stop offset="0.15" stop-color="#ac1113"/>
      <stop offset="0.22" stop-color="#a50e12"/>
      <stop offset="0.43" stop-color="#a30d11"/>
      <stop offset="0.79" stop-color="#6b0006"/>
    </linearGradient>
    <linearGradient id="linear-gradient-2" x1="110.6" y1="186.94" x2="110.6" y2="211.42" gradientTransform="translate(45.19)" gradientUnits="userSpaceOnUse">
      <stop offset="0" stop-color="#ad1a27"/>
      <stop offset="0.08" stop-color="#9e151f"/>
      <stop offset="0.28" stop-color="#7d090e"/>
      <stop offset="0.44" stop-color="#680304"/>
      <stop offset="0.56" stop-color="#610000"/>
      <stop offset="0.73" stop-color="#520000"/>
      <stop offset="1" stop-color="#3f0000"/>
    </linearGradient>
    <linearGradient id="linear-gradient-3" x1="822.41" y1="199.55" x2="838.7" y2="199.55" gradientTransform="matrix(-1, 0, 0, 1, 1015.73, 0)" gradientUnits="userSpaceOnUse">
      <stop offset="0" stop-color="#be1349"/>
      <stop offset="0.24" stop-color="#be124e"/>
      <stop offset="0.25" stop-color="#be124e"/>
      <stop offset="1" stop-color="#7a0025"/>
    </linearGradient>
    <linearGradient id="linear-gradient-4" x1="817.59" y1="207.68" x2="838.77" y2="207.68" gradientTransform="matrix(-1, 0, 0, 1, 1015.73, 0)" gradientUnits="userSpaceOnUse">
      <stop offset="0" stop-color="#282881"/>
      <stop offset="0.27" stop-color="#26257d"/>
      <stop offset="0.55" stop-color="#1f1b70"/>
      <stop offset="0.84" stop-color="#150c5b"/>
      <stop offset="1" stop-color="#0d004c"/>
    </linearGradient>
    <linearGradient id="linear-gradient-5" x1="822.6" y1="207.68" x2="838.7" y2="207.68" xlink:href="#linear-gradient-3"/>
    <linearGradient id="linear-gradient-6" x1="825.86" y1="199.48" x2="846.09" y2="199.48" xlink:href="#linear-gradient-4"/>
    <linearGradient id="linear-gradient-7" x1="126.04" y1="206.87" x2="126.04" y2="195.28" gradientTransform="translate(45.19)" gradientUnits="userSpaceOnUse">
      <stop offset="0" stop-color="#ed2d24"/>
      <stop offset="0.12" stop-color="#ed2824"/>
      <stop offset="0.25" stop-color="#ec1c24"/>
      <stop offset="1" stop-color="#74020d"/>
    </linearGradient>
    <radialGradient id="radial-gradient" cx="2977.87" cy="418.24" r="13.1" gradientTransform="matrix(0.74, 0.02, -0.03, 0.82, -2121.15, -206.49)" gradientUnits="userSpaceOnUse">
      <stop offset="0" stop-color="#00ddde" stop-opacity="0.52"/>
      <stop offset="0.09" stop-color="#2de6e7" stop-opacity="0.65"/>
      <stop offset="0.2" stop-color="#63f1f1" stop-opacity="0.8"/>
      <stop offset="0.3" stop-color="#8af8f9" stop-opacity="0.91"/>
      <stop offset="0.38" stop-color="#a2fdfd" stop-opacity="0.98"/>
      <stop offset="0.43" stop-color="#abffff"/>
      <stop offset="0.46" stop-color="#9ffcfd"/>
      <stop offset="0.51" stop-color="#7ff6f6"/>
      <stop offset="0.58" stop-color="#4aebeb"/>
      <stop offset="0.66" stop-color="#03dcdd"/>
      <stop offset="0.66" stop-color="#00dbdc"/>
      <stop offset="0.69" stop-color="#08dcdd" stop-opacity="0.97"/>
      <stop offset="0.74" stop-color="#1fdfe0" stop-opacity="0.88"/>
      <stop offset="0.8" stop-color="#44e5e5" stop-opacity="0.73"/>
      <stop offset="0.87" stop-color="#78eced" stop-opacity="0.53"/>
      <stop offset="0.94" stop-color="#baf5f6" stop-opacity="0.27"/>
      <stop offset="1" stop-color="#fff" stop-opacity="0"/>
    </radialGradient>
    <linearGradient id="_ÂÁ_Ï_ÌÌ_È_ËÂÌÚ_14" data-name="¡ÂÁ˚ÏˇÌÌ˚È „‡‰ËÂÌÚ 14" x1="4363.57" y1="324.89" x2="4432.41" y2="324.89" gradientTransform="translate(-4259.86 13.43) rotate(-2.88)" gradientUnits="userSpaceOnUse">
      <stop offset="0" stop-color="#003a6b"/>
      <stop offset="1" stop-color="#00204c"/>
    </linearGradient>
    <linearGradient id="_ÂÁ_Ï_ÌÌ_È_ËÂÌÚ_18" data-name="¡ÂÁ˚ÏˇÌÌ˚È „‡‰ËÂÌÚ 18" x1="4418.01" y1="87.95" x2="4452.88" y2="146.71" gradientTransform="translate(-4284.51)" gradientUnits="userSpaceOnUse">
      <stop offset="0" stop-color="#cbd7e1"/>
      <stop offset="0.05" stop-color="#aec0d0"/>
      <stop offset="0.15" stop-color="#7998b2"/>
      <stop offset="0.26" stop-color="#4e7698"/>
      <stop offset="0.35" stop-color="#2c5c85"/>
      <stop offset="0.44" stop-color="#144976"/>
      <stop offset="0.53" stop-color="#053e6e"/>
      <stop offset="0.6" stop-color="#003a6b"/>
      <stop offset="1" stop-color="#00204c"/>
    </linearGradient>
  </defs>
  <title>robot</title>
  <g class="cls-1">
    <g id="prosabot">
      <g id="fondo">
        <rect class="cls-2" width="1024" height="620"/>
      </g>
      <g id="sombra">
        <ellipse class="cls-3" cx="149.42" cy="342.38" rx="56.05" ry="12.58"/>
        <ellipse class="cls-4" cx="149.42" cy="342.38" rx="43.66" ry="8"/>
        <ellipse class="cls-4" cx="149.42" cy="342.38" rx="26.29" ry="4.82"/>
      </g>
      <g id="brazoIzquierdo">
        <g>
          <path class="cls-5" d="M227.87,218.47c-7.25-34.47-21.32-49.17-24.61-52.22a2.88,2.88,0,0,0-1.77-.77c-2.45-.15-8.77.48-15,9.65-4.29,6.33-2.8,16.56-2.41,17.06,4,5.16,29.34,37.71,36.06,48.85C227.48,253.15,231,233.19,227.87,218.47Z"/>
          <path class="cls-6" d="M186.47,175.16a28.82,28.82,0,0,1,5.9-6.54c-.67.81-1.34,1.7-2,2.69-5.4,8-2.8,13.4-.91,17.1,6.81,13.26,26.14,37.84,31.12,53.34-.15-.21-.29-.44-.43-.68-6.73-11.14-32-43.68-36.07-48.84C183.68,191.73,182.19,181.5,186.47,175.16Z"/>
          <path class="cls-7" d="M206.2,178.37c16.22,11.67,20.94,53.2,20.94,53.2S216.42,203,208.27,191.06,200.66,174.38,206.2,178.37Z"/>
          <path class="cls-6" d="M216.12,234.36a44.81,44.81,0,0,1,.18,6c-.07.55-2.72,3.2-2.74,2.92-.2-2.5-2.46-15.53-4.86-18.84C207.85,223.26,216,232,216.12,234.36Z"/>
          <path class="cls-8" d="M208.41,224.84a.4.4,0,0,0,.32-.23c3-6.6,10.38-12.16,18-9.45a.4.4,0,0,0,.27-.76c-8-2.86-15.76,2.95-19,9.88a.39.39,0,0,0,.19.53A.42.42,0,0,0,208.41,224.84Z"/>
        </g>
        <path class="cls-9" d="M203.83,181.57c-.94,10.76-5.44,19.16-10.07,18.76s-7.63-9.45-6.69-20.21,5.43-19,10.07-18.76C203.83,161.71,204.76,170.81,203.83,181.57Z"/>
      </g>
      <g id="torso">
        <path class="cls-5" d="M94.1,160.19c-4.81-.3-21.75,16.69-16.65,33.18s34,71.51,40.51,90.78,10.46,24,19.75,25.75,23.35,2.39,39.64-31.62,18.79-72.21,19.53-90.35-1.15-25.35-7.5-27.43C174.59,155.68,94.1,160.19,94.1,160.19Z"/>
        <path class="cls-7" d="M170.78,274.27c12.63-35.77,11.11-74.23,9.93-92.45-.78-12.12-2.21-19.26-5-23.1-13.46-.76-33.11-.43-49.76.11,8.9,23.49,22.06,63,24.25,103.8,1.47,27.18-2.29,40.46-7.49,47.27C151.2,308.2,161.38,300.9,170.78,274.27Z"/>
        <path class="cls-10" d="M190.79,162c0,3.52-24.91,9-50,9s-50.07-5.35-50.08-8.88,24.92-3.85,50.06-3.89S190.79,158.49,190.79,162Z"/>
        <path class="cls-11" d="M175.6,162.74c0,2.43-17.16,6.22-34.48,6.25s-34.49-3.7-34.49-6.14,17.17-2.66,34.48-2.69S175.59,160.3,175.6,162.74Z"/>
        <path class="cls-12" d="M165.06,164c0,.93-11.83,2.12-23.37,2.13s-22.57-1.12-22.58-2,11-1.31,22.58-1.33S165.06,163.07,165.06,164Z"/>
        <path class="cls-13" d="M128.3,288.13c-2.67-14.42-6.65-61.57-16.13-94.85-4.75-16.68-15.94-28.45-26.76-24.72-7.68,2.65-10.72,15.89-8,24.81,5.1,16.49,34,71.51,40.51,90.78s10.46,24,19.75,25.75c4.79.9,10.84,1.5,17.81-2.77C146.09,308.61,132.72,312,128.3,288.13Z"/>
        <path class="cls-14" d="M161.57,295.15a17.11,17.11,0,0,1-5.73,1,26.67,26.67,0,0,1-6.41-.47,2.56,2.56,0,0,1-2.23-2.38h0a2.32,2.32,0,0,1,2.24-2.38s4.93.55,6.13.54a44.58,44.58,0,0,0,6.22-.58c1.24,0,2.39.36,2,2.13A3.07,3.07,0,0,1,161.57,295.15Z"/>
        <path class="cls-15" d="M160.78,294.89a18,18,0,0,1-4.95.67,28.28,28.28,0,0,1-5.54-.33c-1-.22-1.94-.77-1.94-1.7h0a1.84,1.84,0,0,1,1.94-1.7s4.26.4,5.3.39a45.36,45.36,0,0,0,5.38-.42c1.07,0,2.07.26,1.75,1.53C162.57,293.91,162.07,294.49,160.78,294.89Z"/>
        <path class="cls-8" d="M154.46,284.28c-11.33,0-25.21-2.46-40.19-8.61a.42.42,0,0,1-.22-.53.4.4,0,0,1,.53-.21c27.9,11.47,51.91,10,62.41,3.8a.4.4,0,1,1,.41.69C172.41,282.38,164.42,284.28,154.46,284.28Z"/>
        <path class="cls-16" d="M154.16,283.38c-11.32,0-25.21-2.45-40.18-8.61a.39.39,0,0,1-.22-.52.4.4,0,0,1,.52-.22c27.91,11.47,51.92,10,62.42,3.81a.38.38,0,0,1,.54.14.4.4,0,0,1-.14.55C172.11,281.48,164.13,283.38,154.16,283.38Z"/>
        <path class="cls-7" d="M194.77,169.5c2.14,43.6-4.14,64.24-4.14,64.24s6-33,.46-64.8C190.33,164.58,194.44,162.68,194.77,169.5Z"/>
        <path class="cls-16" d="M94.52,166.45s5,3,23.1,4.67,42,1.37,42,1.37-22,2.91-42.11.74S94.52,166.45,94.52,166.45Z"/>
        <path class="cls-17" d="M158.5,292.08c-.88.07-1.9.13-2.91.14s-5.3-.39-5.3-.39a2.58,2.58,0,0,0-.4,0l2,3.57a38.93,38.93,0,0,0,4,.12,18.1,18.1,0,0,0,4.61-.58Z"/>
        <g>
          <path class="cls-18" d="M154.13,199.37a15.39,15.39,0,0,1,9.61-14.26,15.66,15.66,0,0,1,1.71.21,14.18,14.18,0,0,1,11.8,13.51c0,.16,0,.31,0,.46v.18a8.79,8.79,0,0,0-11.66-8.3c.87-.31.84-.31,0,0a8.6,8.6,0,0,0-3-.52,8.41,8.41,0,0,0-8.39,8.7v.08a8.28,8.28,0,0,0,8.31,8.63,8.44,8.44,0,0,0,2.7-.44,8.78,8.78,0,0,0,12-8,14,14,0,0,1-11.71,13.8,17,17,0,0,1-1.8.23A15.41,15.41,0,0,1,154.13,199.37Z"/>
          <path class="cls-19" d="M159.68,199.48a8.78,8.78,0,0,0,5.53,8.16,8.44,8.44,0,0,1-2.7.44,8.28,8.28,0,0,1-8.31-8.63v-.08a8.41,8.41,0,0,1,8.39-8.7,8.6,8.6,0,0,1,3,.52c.89-.33.92-.33,0,0A8.8,8.8,0,0,0,159.68,199.48Z"/>
          <path class="cls-20" d="M162.51,185.05q.62,0,1.23.06a15.4,15.4,0,0,0,0,28.54c-.38,0-.77,0-1.16,0-8.55,0-14.76-6.44-14.76-14.32v-.08C147.83,191.42,154,185.05,162.51,185.05Z"/>
          <path class="cls-21" d="M177.26,199.48v0Z"/>
          <path class="cls-22" d="M165.45,207.56Z"/>
          <path class="cls-23" d="M165.45,207.56Z"/>
          <path class="cls-24" d="M168.47,208.27a8.84,8.84,0,0,1-3.26-.63l.24-.08h0a8.57,8.57,0,0,0,5.66-8.19v-.08a8.43,8.43,0,0,0-5.56-8.1l0,0a8.79,8.79,0,0,1,11.66,8.3v.15A8.79,8.79,0,0,1,168.47,208.27Z"/>
          <path class="cls-25" d="M168.47,208.27a8.84,8.84,0,0,1-3.26-.63l.24-.08h0a8.57,8.57,0,0,0,5.66-8.19v-.08a8.43,8.43,0,0,0-5.56-8.1l0,0a8.79,8.79,0,0,1,11.66,8.3v.15A8.79,8.79,0,0,1,168.47,208.27Z"/>
        </g>
      </g>
      <g id="brazoDerecho">
        <path class="cls-26" d="M104.23,192.66c3.46,12,.72,23.38-6.1,25.34S83,211.8,79.51,199.76s-.72-23.37,6.1-25.33S100.78,180.63,104.23,192.66Z"/>
        <path class="cls-27" d="M95.94,215a.45.45,0,0,1-.45-.41.44.44,0,0,1,.41-.46,5,5,0,0,0,4-2.81c2.84-4.88,2.29-14.08-1.27-21.41-4.26-8.76-11.06-12.26-14.93-10.47a.44.44,0,0,1-.58-.22.43.43,0,0,1,.22-.57c4.86-2.25,12.07,2.64,16.07,10.88,3.68,7.57,4.21,17.12,1.24,22.23A5.87,5.87,0,0,1,96,215Z"/>
        <g>
          <path class="cls-5" d="M58.55,237.54c2.87-35.1,15-51.45,17.87-54.89a2.85,2.85,0,0,1,1.66-1c2.41-.47,8.76-.63,16.07,7.69,5,5.74,4.85,16.08,4.53,16.62C95.33,211.61,74.3,247.07,69,259,63.29,271.9,57.33,252.54,58.55,237.54Z"/>
          <path class="cls-6" d="M94.19,189.39a28.38,28.38,0,0,0-6.67-5.75,32.1,32.1,0,0,1,2.33,2.42c6.37,7.24,4.47,12.94,3.05,16.85-5.09,14-21.18,40.81-24.17,56.82.11-.23.23-.47.34-.73,5.27-11.9,26.3-47.36,29.65-53C99,205.47,99.24,195.13,94.19,189.39Z"/>
          <path class="cls-7" d="M75,195c-14.62,13.62-14.11,55.41-14.11,55.41s7.06-29.7,13.65-42.56S80,190.39,75,195Z"/>
          <path class="cls-6" d="M72.21,251.84a43.87,43.87,0,0,0,.56,6c.14.53,3.1,2.83,3.09,2.55-.11-2.51.49-15.73,2.46-19.31C79,239.79,72,249.43,72.21,251.84Z"/>
          <path class="cls-8" d="M78.66,241.43a.39.39,0,0,1-.34-.19c-3.86-6.17-11.83-10.76-19-7.13a.4.4,0,0,1-.37-.71c7.61-3.85,16,.94,20.06,7.42a.41.41,0,0,1-.13.55A.42.42,0,0,1,78.66,241.43Z"/>
        </g>
        <g>
          <path class="cls-28" d="M83.51,205c-.18,6-4.67,10.64-10,10.48s-9.56-5.12-9.38-11.07,4.68-10.64,10-10.48S83.69,199,83.51,205Z"/>
          <g>
            <path class="cls-29" d="M67.17,205.61c-.13,2,1,4.09,2.14,5.68A19.68,19.68,0,0,0,71.64,214s6.19-1.58,7.89-5.13c.36-.75,2-5.4,2-5.4s.49-1.13-.43-1.64A30.43,30.43,0,0,1,77.94,200a9,9,0,0,0-2.09-1.35c-.59-.21-.85-.09-1.94,0a33.25,33.25,0,0,1-3.69-.09c-1.09,0-1.22,1.22-1.22,1.22A59.86,59.86,0,0,0,67.17,205.61Z"/>
            <path class="cls-30" d="M69,199.8a59.86,59.86,0,0,0-1.83,5.81c-.26,4,4.47,8.37,4.47,8.37h0s6.19-1.59,7.89-5.14c.36-.74,2-5.4,2-5.4s.49-1.12-.43-1.63A30.43,30.43,0,0,1,77.94,200a9,9,0,0,0-2.09-1.35c-.59-.21-.85-.09-1.94,0a33.25,33.25,0,0,1-3.69-.09C69.13,198.55,69,199.8,69,199.8Zm1-.2.91,0a10.72,10.72,0,0,0,2.84,0c2-.37,2.56.62,3.5,1.3a17.46,17.46,0,0,0,2.42,1.4l.78.41a.64.64,0,0,1-.05.23l0,.06c-.62,1.79-1.7,4.8-1.94,5.3-.74,1.55-2.6,2.68-4,3.37a19.35,19.35,0,0,1-2.39.95,22,22,0,0,1-1.67-2c-.92-1.3-2-3.43-1.92-5.16a39.25,39.25,0,0,1,1.49-5.63S70,199.6,70,199.6Z"/>
            <path class="cls-31" d="M67.17,205.61c-.16,2.32,1.38,4.77,2.69,6.41-1.2-1.62-2.41-3.8-2.28-5.87.06-.85,1.84-5.81,1.84-5.81s.13-1.25,1.22-1.23a30.84,30.84,0,0,0,3.69.1c1.08-.08,1.35-.2,1.94,0a8.71,8.71,0,0,1,2.09,1.35,29.21,29.21,0,0,0,3.14,1.77l.08.06a1,1,0,0,0-.5-.59A30.43,30.43,0,0,1,77.94,200a9,9,0,0,0-2.09-1.35c-.59-.21-.85-.09-1.94,0a33.25,33.25,0,0,1-3.69-.09c-1.09,0-1.22,1.22-1.22,1.22A59.86,59.86,0,0,0,67.17,205.61Z"/>
            <path class="cls-30" d="M73.34,205.71a.38.38,0,0,0,.09.37l-.07.29a.07.07,0,0,0,0,.1l.23.06a.08.08,0,0,0,.1-.06l.08-.29a.39.39,0,0,0,.26-.27.39.39,0,0,0-.27-.48A.39.39,0,0,0,73.34,205.71Z"/>
            <path class="cls-30" d="M73.34,203.72l-.15.57,1.72.46.15-.57a.89.89,0,1,0-1.72-.46Z"/>
            <path class="cls-30" d="M70.23,201.18s-1.08,3.66-1.12,4.29c-.23,3,3.08,6.4,3.08,6.4h0s4.4-1.23,5.64-3.89c.26-.56,1.46-4,1.46-4s.36-.85-.29-1.22a19.85,19.85,0,0,1-2.21-1.28,10.25,10.25,0,0,0-1-.69,3.16,3.16,0,0,0-.63-.34h0a2.54,2.54,0,0,0-1.29-.1,20.18,20.18,0,0,1-2.6,0C70.5,200.27,70.23,201.18,70.23,201.18Zm1.58,3.25a.49.49,0,0,1,.59-.35l.12,0,.15-.57a1.58,1.58,0,1,1,3.06.8l-.15.57.12,0a.47.47,0,0,1,.34.59l-.58,2.22a.49.49,0,0,1-.59.35l-3.31-.88a.49.49,0,0,1-.34-.59Z"/>
            <path class="cls-31" d="M69.11,205.47c-.17,2.13,1.5,4.51,2.45,5.68-1-1.28-2.18-3.3-2-5.14,0-.63,1.12-4.29,1.12-4.29s.26-.92,1-.91a19.92,19.92,0,0,0,2.59,0,2.4,2.4,0,0,1,1.29.1h0a4.61,4.61,0,0,1,.63.35c.28.17.62.4,1,.68a17,17,0,0,0,2.16,1.26.73.73,0,0,0-.37-.51,18,18,0,0,1-2.21-1.29,12,12,0,0,0-1-.68,3.8,3.8,0,0,0-.63-.34h0a2.49,2.49,0,0,0-1.28-.1,20.2,20.2,0,0,1-2.6,0c-.76,0-1,.9-1,.9S69.15,204.84,69.11,205.47Z"/>
          </g>
        </g>
      </g>
      <g id="cabeza">
        <g>
          <path class="cls-5" d="M97.91,146.79c11.44,14.72,46.45,11.92,56.2,11s26.28-2.64,32.24-20.59,3-45.36-13.39-59.6-60.17-11.92-75.05,7.28S93.94,141.68,97.91,146.79Z"/>
          <path class="cls-16" d="M100.93,88.78c.65-.23,14.17-10.74,38.65-12.84,8.43-.72,21.56,0,30,1.17-.83-.89-12.94-7.88-37.92-5.28A49.33,49.33,0,0,0,100.93,88.78Z"/>
          <path class="cls-7" d="M145.44,84.43c-7.88.13-15.78.69-23.21,3.51l-.17.07c7.71,16.33,8.35,37.61,3.83,52.83a32.16,32.16,0,0,1-6.56,12.33c13.62,2.4,28.86,1.15,34.78.59,6.45-.62,15.87-1.58,23.23-7.35a38.75,38.75,0,0,0,2.13-5.57c4.57-15.42,3.86-37-4.14-53.47A127.15,127.15,0,0,0,145.44,84.43Z"/>
          <path class="cls-32" d="M116.94,98.94c4.55-6.18,16.93-7.8,32.44-8.72,20-1.2,26.79,2.43,28.84,4.74s5.59,13.81,4.83,25-.89,14.53-5.48,17.31-17.88,5.5-26.46,5.71c-16.25.39-24.44-.4-29.88-3.59-2.78-1.64-6.31-10.42-6.86-21.26S114.59,102.14,116.94,98.94Z"/>
          <path class="cls-33" d="M148.82,91.94c-9.63.56-18,1.39-23.9,3.48,5.15,14.3,5.19,31.27,1.36,43.82,0,.15-.09.28-.14.43,5.15,1.48,12.52,1.84,24.34,1.56,8.23-.19,21-2.74,25.38-5.33a7.9,7.9,0,0,0,3.46-3.61,74.8,74.8,0,0,0-2.55-35.55l-.28-.37C174.53,94.21,168,90.83,148.82,91.94Z"/>
          <path class="cls-9" d="M106.42,109.21c-.27,6.06-3.66,10.84-7.57,10.67s-6.87-5.23-6.6-11.3,3.66-10.85,7.57-10.68S106.69,103.14,106.42,109.21Z"/>
          <path class="cls-34" d="M103.32,108.75c-.19,4.26-2.27,7.63-4.64,7.52s-4.14-3.64-4-7.9,2.27-7.63,4.64-7.53S103.51,104.49,103.32,108.75Z"/>
          <path class="cls-27" d="M103.38,109.07l-.4,0,.4,0A14.88,14.88,0,0,0,101.6,101c-1.32-2.26-3.16-3.55-5.2-3.64-4.11-.18-7.71,4.77-8,11.06s2.86,11.54,7,11.72h.22C99.65,120.13,103.11,115.24,103.38,109.07Zm-7-10.92c1.75.08,3.36,1.23,4.54,3.24a14.15,14.15,0,0,1,1.67,7.64c-.26,5.84-3.47,10.45-7.15,10.3s-6.47-5-6.21-10.89,3.35-10.3,7-10.3Z"/>
          <path class="cls-7" d="M95.88,123.28l2.87.09s1.22,11.93,4.66,18.93,8.32,9.26,8.32,9.26-7.35-2.39-11.76-11.47C96.8,133.55,95.88,123.28,95.88,123.28Z"/>
          <path class="cls-35" d="M119.64,99.85v0a1.52,1.52,0,0,0,2.19.51c1.39-.95,3.52-2.38,4.75-3,1.93-1.06,11.49-4.59,11.49-4.59s-9.58.2-17.72,4.62A1.82,1.82,0,0,0,119.64,99.85Z"/>
        </g>
        <path class="cls-36" d="M112.13,107.81c0,1.88-.88,3.41-2,3.41s-2-1.53-2-3.41.87-3.41,2-3.41S112.13,105.93,112.13,107.81Z"/>
      </g>
      <g id="ojos">
        <g>
          <rect class="cls-37" x="135.36" y="103.18" width="13.81" height="18.04" rx="4.95"/>
          <rect class="cls-37" x="136.81" y="105.12" width="10.91" height="14.16" rx="4.95"/>
          <rect class="cls-38" x="138.64" y="106.94" width="7.57" height="11.02" rx="3.07"/>
          <path class="cls-39" d="M145.41,111.19h-6.22a.3.3,0,0,1-.3-.3.29.29,0,0,1,.3-.3h6.22a.29.29,0,0,1,.3.3A.3.3,0,0,1,145.41,111.19Z"/>
          <path class="cls-39" d="M145.41,112.5h-6.22a.3.3,0,1,1,0-.6h6.22a.3.3,0,0,1,0,.6Z"/>
          <path class="cls-39" d="M145.41,113.86h-6.22a.29.29,0,0,1-.3-.3.3.3,0,0,1,.3-.3h6.22a.3.3,0,0,1,.3.3A.29.29,0,0,1,145.41,113.86Z"/>
          <path class="cls-39" d="M144.62,108.67H140a.31.31,0,0,1-.3-.3.3.3,0,0,1,.3-.3h4.64a.3.3,0,0,1,.3.3A.31.31,0,0,1,144.62,108.67Z"/>
          <path class="cls-39" d="M145.41,110h-6.22a.3.3,0,1,1,0-.6h6.22a.3.3,0,0,1,0,.6Z"/>
          <path class="cls-39" d="M145.41,115.48h-6.22a.3.3,0,1,1,0-.6h6.22a.3.3,0,1,1,0,.6Z"/>
          <path class="cls-39" d="M145.41,116.8h-6.22a.31.31,0,0,1,0-.61h6.22a.31.31,0,0,1,0,.61Z"/>
        </g>
        <g>
          <rect class="cls-37" x="160.16" y="102.85" width="13.81" height="18.04" rx="4.95"/>
          <rect class="cls-37" x="161.6" y="104.79" width="10.91" height="14.16" rx="4.95"/>
          <rect class="cls-38" x="163.44" y="106.61" width="7.57" height="11.02" rx="3.07"/>
          <path class="cls-39" d="M170.21,110.86H164a.3.3,0,1,1,0-.6h6.22a.3.3,0,1,1,0,.6Z"/>
          <path class="cls-39" d="M170.21,112.17H164a.29.29,0,0,1-.3-.3.3.3,0,0,1,.3-.3h6.22a.31.31,0,0,1,.3.3A.3.3,0,0,1,170.21,112.17Z"/>
          <path class="cls-39" d="M170.21,113.54H164a.3.3,0,0,1-.3-.3.29.29,0,0,1,.3-.3h6.22a.3.3,0,0,1,.3.3A.31.31,0,0,1,170.21,113.54Z"/>
          <path class="cls-39" d="M169.41,108.34h-4.63a.3.3,0,1,1,0-.6h4.63a.3.3,0,0,1,0,.6Z"/>
          <path class="cls-39" d="M170.21,109.7H164a.29.29,0,0,1-.3-.3.3.3,0,0,1,.3-.3h6.22a.31.31,0,0,1,.3.3A.3.3,0,0,1,170.21,109.7Z"/>
          <path class="cls-39" d="M170.21,115.16H164a.31.31,0,0,1,0-.61h6.22a.31.31,0,0,1,0,.61Z"/>
          <path class="cls-39" d="M170.21,116.47H164a.3.3,0,0,1-.3-.3.29.29,0,0,1,.3-.3h6.22a.3.3,0,0,1,.3.3A.31.31,0,0,1,170.21,116.47Z"/>
        </g>
      </g>
      <path id="boca" class="cls-40" d="M145.14,130.47c6.23.79,17.41,1.41,17.41,1.41s-9.89,1-16.34-.11S138.44,129.62,145.14,130.47Z"/>
    </g>
  </g>
</svg>
