<svg xmlns="http://www.w3.org/2000/svg" xmlns:xlink="http://www.w3.org/1999/xlink" width="1024" height="620" viewBox="0 0 1024 620">
  <defs>
    <style>
      .cls-1 {
        isolation: isolate;
      }

      .cls-2 {
        fill: none;
      }

      .cls-3, .cls-4 {
        fill: #51b2fb;
      }

      .cls-3, .cls-37 {
        opacity: 0.1;
      }

      .cls-4 {
        opacity: 0.2;
      }

      .cls-5 {
        fill: #e3ebfc;
      }

      .cls-6 {
        fill: #ccddfa;
      }

      .cls-7 {
        fill: #fafbff;
      }

      .cls-8 {
        fill: #80a7f6;
      }

      .cls-9 {
        fill: #9fbcfb;
      }

      .cls-10 {
        fill: #b8d0f9;
      }

      .cls-11, .cls-27, .cls-36 {
        fill: #207bff;
      }

      .cls-11, .cls-28 {
        opacity: 0.4;
      }

      .cls-12 {
        fill: #004bff;
        opacity: 0.5;
        mix-blend-mode: multiply;
      }

      .cls-13 {
        fill: #c5d8fa;
      }

      .cls-14 {
        fill: url(#_ÂÁ_Ï_ÌÌ_È_ËÂÌÚ_30);
      }

      .cls-15 {
        fill: #4aebff;
      }

      .cls-16, .cls-35 {
        fill: #fff;
      }

      .cls-17 {
        fill: #bef9ff;
      }

      .cls-18 {
        fill: url(#linear-gradient);
      }

      .cls-19 {
        fill: #ec1c24;
      }

      .cls-20 {
        fill: url(#linear-gradient-2);
      }

      .cls-21 {
        fill: url(#linear-gradient-3);
      }

      .cls-22 {
        fill: url(#linear-gradient-4);
      }

      .cls-23 {
        fill: url(#linear-gradient-5);
      }

      .cls-24 {
        fill: url(#linear-gradient-6);
      }

      .cls-25 {
        fill: url(#linear-gradient-7);
      }

      .cls-26 {
        fill: #93b4fb;
      }

      .cls-28 {
        mix-blend-mode: lighten;
        fill: url(#radial-gradient);
      }

      .cls-29 {
        fill: #00ffda;
      }

      .cls-30 {
        fill: #7fd1ca;
      }

      .cls-31 {
        fill: #1e1e1e;
      }

      .cls-32 {
        fill: url(#_ÂÁ_Ï_ÌÌ_È_ËÂÌÚ_14);
      }

      .cls-33 {
        fill: url(#_ÂÁ_Ï_ÌÌ_È_ËÂÌÚ_18);
      }

      .cls-34 {
        fill: #4880f8;
      }

      .cls-35 {
        opacity: 0.8;
      }

      .cls-36 {
        opacity: 0.72;
      }

      .cls-37, .cls-38, .cls-39, .cls-40 {
        fill: #3ae6fb;
      }

      .cls-38 {
        opacity: 0.3;
      }

      .cls-40 {
        opacity: 0.7;
      }
    </style>
    <radialGradient id="_ÂÁ_Ï_ÌÌ_È_ËÂÌÚ_30" data-name="¡ÂÁ˚ÏˇÌÌ˚È „‡‰ËÂÌÚ 30" cx="4446.21" cy="493.14" r="5.92" gradientTransform="translate(-4284.51)" gradientUnits="userSpaceOnUse">
      <stop offset="0" stop-color="#4aebff"/>
      <stop offset="1" stop-color="#00709e"/>
    </radialGradient>
    <linearGradient id="linear-gradient" x1="126.23" y1="389.75" x2="126.23" y2="422.39" gradientTransform="translate(45.19)" gradientUnits="userSpaceOnUse">
      <stop offset="0.02" stop-color="#dd2a21"/>
      <stop offset="0.06" stop-color="#c8201b"/>
      <stop offset="0.1" stop-color="#b71717"/>
      <stop offset="0.15" stop-color="#ac1113"/>
      <stop offset="0.22" stop-color="#a50e12"/>
      <stop offset="0.43" stop-color="#a30d11"/>
      <stop offset="0.79" stop-color="#6b0006"/>
    </linearGradient>
    <linearGradient id="linear-gradient-2" x1="116.75" y1="391.2" x2="116.75" y2="414.63" gradientTransform="translate(45.19)" gradientUnits="userSpaceOnUse">
      <stop offset="0" stop-color="#ad1a27"/>
      <stop offset="0.08" stop-color="#9e151f"/>
      <stop offset="0.28" stop-color="#7d090e"/>
      <stop offset="0.44" stop-color="#680304"/>
      <stop offset="0.56" stop-color="#610000"/>
      <stop offset="0.73" stop-color="#520000"/>
      <stop offset="1" stop-color="#3f0000"/>
    </linearGradient>
    <linearGradient id="linear-gradient-3" x1="817.55" y1="403.26" x2="833.47" y2="403.26" gradientTransform="matrix(-1, 0, 0, 1, 1015.73, 0)" gradientUnits="userSpaceOnUse">
      <stop offset="0" stop-color="#be1349"/>
      <stop offset="0.24" stop-color="#be124e"/>
      <stop offset="0.25" stop-color="#be124e"/>
      <stop offset="1" stop-color="#7a0025"/>
    </linearGradient>
    <linearGradient id="linear-gradient-4" x1="813.26" y1="411.05" x2="833.53" y2="411.05" gradientTransform="matrix(-1, 0, 0, 1, 1015.73, 0)" gradientUnits="userSpaceOnUse">
      <stop offset="0" stop-color="#282881"/>
      <stop offset="0.27" stop-color="#26257d"/>
      <stop offset="0.55" stop-color="#1f1b70"/>
      <stop offset="0.84" stop-color="#150c5b"/>
      <stop offset="1" stop-color="#0d004c"/>
    </linearGradient>
    <linearGradient id="linear-gradient-5" x1="818.05" y1="411.05" x2="833.46" y2="411.05" xlink:href="#linear-gradient-3"/>
    <linearGradient id="linear-gradient-6" x1="821.18" y1="403.2" x2="840.54" y2="403.2" xlink:href="#linear-gradient-4"/>
    <linearGradient id="linear-gradient-7" x1="131.53" y1="410.28" x2="131.53" y2="399.19" gradientTransform="translate(45.19)" gradientUnits="userSpaceOnUse">
      <stop offset="0" stop-color="#ed2d24"/>
      <stop offset="0.12" stop-color="#ed2824"/>
      <stop offset="0.25" stop-color="#ec1c24"/>
      <stop offset="1" stop-color="#74020d"/>
    </linearGradient>
    <radialGradient id="radial-gradient" cx="2999.28" cy="665.16" r="12.54" gradientTransform="matrix(0.74, 0.02, -0.03, 0.82, -2121.15, -206.49)" gradientUnits="userSpaceOnUse">
      <stop offset="0" stop-color="#00ddde" stop-opacity="0.52"/>
      <stop offset="0.09" stop-color="#2de6e7" stop-opacity="0.65"/>
      <stop offset="0.2" stop-color="#63f1f1" stop-opacity="0.8"/>
      <stop offset="0.3" stop-color="#8af8f9" stop-opacity="0.91"/>
      <stop offset="0.38" stop-color="#a2fdfd" stop-opacity="0.98"/>
      <stop offset="0.43" stop-color="#abffff"/>
      <stop offset="0.46" stop-color="#9ffcfd"/>
      <stop offset="0.51" stop-color="#7ff6f6"/>
      <stop offset="0.58" stop-color="#4aebeb"/>
      <stop offset="0.66" stop-color="#03dcdd"/>
      <stop offset="0.66" stop-color="#00dbdc"/>
      <stop offset="0.69" stop-color="#08dcdd" stop-opacity="0.97"/>
      <stop offset="0.74" stop-color="#1fdfe0" stop-opacity="0.88"/>
      <stop offset="0.8" stop-color="#44e5e5" stop-opacity="0.73"/>
      <stop offset="0.87" stop-color="#78eced" stop-opacity="0.53"/>
      <stop offset="0.94" stop-color="#baf5f6" stop-opacity="0.27"/>
      <stop offset="1" stop-color="#fff" stop-opacity="0"/>
    </radialGradient>
    <linearGradient id="_ÂÁ_Ï_ÌÌ_È_ËÂÌÚ_14" data-name="¡ÂÁ˚ÏˇÌÌ˚È „‡‰ËÂÌÚ 14" x1="4361.07" y1="532.24" x2="4426.94" y2="532.24" gradientTransform="translate(-4259.86 13.43) rotate(-2.88)" gradientUnits="userSpaceOnUse">
      <stop offset="0" stop-color="#003a6b"/>
      <stop offset="1" stop-color="#00204c"/>
    </linearGradient>
    <linearGradient id="_ÂÁ_Ï_ÌÌ_È_ËÂÌÚ_18" data-name="¡ÂÁ˚ÏˇÌÌ˚È „‡‰ËÂÌÚ 18" x1="4425.12" y1="296.48" x2="4458.5" y2="352.71" gradientTransform="translate(-4284.51)" gradientUnits="userSpaceOnUse">
      <stop offset="0" stop-color="#cbd7e1"/>
      <stop offset="0.05" stop-color="#aec0d0"/>
      <stop offset="0.15" stop-color="#7998b2"/>
      <stop offset="0.26" stop-color="#4e7698"/>
      <stop offset="0.35" stop-color="#2c5c85"/>
      <stop offset="0.44" stop-color="#144976"/>
      <stop offset="0.53" stop-color="#053e6e"/>
      <stop offset="0.6" stop-color="#003a6b"/>
      <stop offset="1" stop-color="#00204c"/>
    </linearGradient>
  </defs>
  <title>robot</title>
  <g class="cls-1">
    <g id="prosabot">
      <g id="fondo">
        <rect class="cls-2" width="1024" height="620"/>
      </g>
      <g id="sombra">
        <ellipse class="cls-3" cx="145.34" cy="527.63" rx="47.47" ry="10.66"/>
        <path class="cls-4" d="M182.82,527.13c0,3.74-16.56,6.78-37,6.78s-37-3-37-6.78,16.56-6.78,37-6.78S182.82,523.39,182.82,527.13Z" transform="translate(-0.5 0.5)"/>
        <path class="cls-4" d="M168.1,527.13c0,2.25-10,4.08-22.26,4.08s-22.27-1.83-22.27-4.08,10-4.08,22.27-4.08S168.1,524.87,168.1,527.13Z" transform="translate(-0.5 0.5)"/>
      </g>
      <g id="brazoIzquierdo">
        <g>
          <path class="cls-5" d="M230.92,421.37c-6.94-33-20.4-47.05-23.56-50a2.71,2.71,0,0,0-1.68-.73c-2.35-.15-8.4.46-14.34,9.23-4.1,6.06-2.68,15.85-2.3,16.33,3.85,4.94,28.07,36.08,34.5,46.74C230.54,454.56,233.88,435.46,230.92,421.37Z" transform="translate(-0.5 0.5)"/>
          <path class="cls-6" d="M191.31,379.93a27.61,27.61,0,0,1,5.63-6.26c-.63.77-1.28,1.63-1.92,2.58-5.18,7.64-2.69,12.82-.87,16.36,6.51,12.69,25,36.21,29.77,51-.14-.2-.27-.42-.41-.65-6.44-10.66-30.66-41.8-34.51-46.74C188.63,395.78,187.2,386,191.31,379.93Z" transform="translate(-0.5 0.5)"/>
          <path class="cls-7" d="M210.18,383c15.52,11.17,20,50.91,20,50.91S220,406.56,212.16,395.15,204.88,379.18,210.18,383Z" transform="translate(-0.5 0.5)"/>
          <path class="cls-6" d="M219.67,436.58a42.71,42.71,0,0,1,.18,5.74c-.07.52-2.6,3.06-2.63,2.79-.19-2.4-2.35-14.87-4.65-18C211.76,426,219.59,434.27,219.67,436.58Z" transform="translate(-0.5 0.5)"/>
          <path class="cls-8" d="M212.3,427.47a.36.36,0,0,0,.3-.22c2.92-6.32,9.93-11.63,17.19-9a.39.39,0,0,0,.49-.24.38.38,0,0,0-.23-.49c-7.69-2.74-15.09,2.82-18.15,9.45a.38.38,0,0,0,.4.54Z" transform="translate(-0.5 0.5)"/>
        </g>
        <path class="cls-9" d="M207.91,386.06c-.89,10.3-5.21,18.34-9.64,17.95s-7.29-9-6.4-19.34,5.2-18.18,9.64-17.95C207.92,367.06,208.8,375.76,207.91,386.06Z" transform="translate(-0.5 0.5)"/>
      </g>
      <g id="torso">
        <path class="cls-5" d="M102.9,365.61c-4.59-.3-20.8,16-15.92,31.74s32.5,68.44,38.76,86.87,10,23,18.91,24.65,22.34,2.28,37.92-30.26,18-69.1,18.7-86.46-1.11-24.26-7.18-26.25C179.93,361.28,102.9,365.61,102.9,365.61Z" transform="translate(-0.5 0.5)"/>
        <path class="cls-7" d="M176.29,474.77c12.08-34.23,10.63-71,9.5-88.47-.74-11.59-2.11-18.43-4.78-22.1-12.87-.73-31.68-.41-47.61.1,8.52,22.48,21.11,60.33,23.21,99.33,1.4,26-2.2,38.72-7.17,45.23C157.55,507.24,167.29,500.25,176.29,474.77Z" transform="translate(-0.5 0.5)"/>
        <path class="cls-10" d="M195.44,367.35c0,3.37-23.84,8.61-47.89,8.65s-47.91-5.12-47.92-8.49,23.85-3.68,47.9-3.72S195.43,364,195.44,367.35Z" transform="translate(-0.5 0.5)"/>
        <path class="cls-11" d="M180.9,368c0,2.33-16.42,6-33,6s-33-3.54-33-5.87,16.43-2.55,33-2.58S180.89,365.71,180.9,368Z" transform="translate(-0.5 0.5)"/>
        <path class="cls-12" d="M170.82,369.25c0,.89-11.33,2-22.37,2s-21.6-1.07-21.6-2,10.56-1.24,21.6-1.26S170.81,368.36,170.82,369.25Z" transform="translate(-0.5 0.5)"/>
        <path class="cls-13" d="M135.64,488c-2.56-13.79-6.37-58.92-15.44-90.76-4.55-16-15.25-27.22-25.61-23.65-7.35,2.53-10.25,15.2-7.61,23.73,4.88,15.78,32.5,68.44,38.76,86.87s10,23,18.91,24.65c4.58.86,10.37,1.43,17-2.66C152.66,507.63,139.87,510.88,135.64,488Z" transform="translate(-0.5 0.5)"/>
        <path class="cls-14" d="M167.47,494.75a16.17,16.17,0,0,1-5.48.91,25.62,25.62,0,0,1-6.13-.45,2.47,2.47,0,0,1-2.14-2.28h0a2.22,2.22,0,0,1,2.15-2.27s4.71.52,5.86.51a41,41,0,0,0,6-.56c1.18,0,2.28.35,1.93,2A2.94,2.94,0,0,1,167.47,494.75Z" transform="translate(-0.5 0.5)"/>
        <path class="cls-15" d="M166.72,494.5a16.61,16.61,0,0,1-4.74.64,25.32,25.32,0,0,1-5.3-.32c-1-.2-1.85-.73-1.85-1.62h0a1.75,1.75,0,0,1,1.85-1.62s4.08.37,5.07.37a43.8,43.8,0,0,0,5.15-.4c1,0,2,.25,1.67,1.46C168.43,493.57,168,494.12,166.72,494.5Z" transform="translate(-0.5 0.5)"/>
        <path class="cls-8" d="M160.67,484.35c-10.84,0-24.12-2.35-38.46-8.24a.39.39,0,1,1,.3-.71c26.7,11,49.67,9.58,59.72,3.64a.38.38,0,0,1,.53.14.39.39,0,0,1-.14.52C177.84,482.53,170.2,484.35,160.67,484.35Z" transform="translate(-0.5 0.5)"/>
        <path class="cls-16" d="M160.38,483.49c-10.83,0-24.12-2.35-38.45-8.24a.39.39,0,0,1-.21-.5.38.38,0,0,1,.5-.21c26.71,11,49.68,9.58,59.73,3.64a.39.39,0,0,1,.52.14.37.37,0,0,1-.13.52C177.56,481.67,169.92,483.49,160.38,483.49Z" transform="translate(-0.5 0.5)"/>
        <path class="cls-7" d="M199.25,374.51c2.05,41.73-4,61.47-4,61.47s5.75-31.53.45-62C195,369.8,198.93,368,199.25,374.51Z" transform="translate(-0.5 0.5)"/>
        <path class="cls-16" d="M103.31,371.6s4.74,2.85,22.11,4.47,40.21,1.3,40.21,1.3-21.06,2.79-40.3.72S103.31,371.6,103.31,371.6Z" transform="translate(-0.5 0.5)"/>
        <path class="cls-17" d="M164.53,491.81c-.84.07-1.81.13-2.78.14s-5.07-.37-5.07-.37a1.72,1.72,0,0,0-.39,0l1.88,3.41a35.72,35.72,0,0,0,3.81.11,17.5,17.5,0,0,0,4.41-.55Z" transform="translate(-0.5 0.5)"/>
        <g>
          <path class="cls-18" d="M160.36,403.1a14.73,14.73,0,0,1,9.19-13.65,14.4,14.4,0,0,1,1.64.21,13.58,13.58,0,0,1,11.29,12.92c0,.15,0,.3,0,.44v.16h0a8.41,8.41,0,0,0-8.41-8.4,8.62,8.62,0,0,0-2.75.46c.83-.29.8-.29-.05,0a8.07,8.07,0,0,0-10.86,7.83v.08a7.93,7.93,0,0,0,8,8.25A8.08,8.08,0,0,0,171,411a8.29,8.29,0,0,0,3.12.6,8.41,8.41,0,0,0,8.41-8.27,13.45,13.45,0,0,1-11.21,13.21,15.85,15.85,0,0,1-1.72.21A14.75,14.75,0,0,1,160.36,403.1Z" transform="translate(-0.5 0.5)"/>
          <path class="cls-19" d="M165.67,403.2A8.41,8.41,0,0,0,171,411a8.08,8.08,0,0,1-2.59.42,7.93,7.93,0,0,1-8-8.25v-.08a8.07,8.07,0,0,1,10.86-7.83c.85-.31.88-.31.05,0A8.42,8.42,0,0,0,165.67,403.2Z" transform="translate(-0.5 0.5)"/>
          <path class="cls-20" d="M168.37,389.4c.4,0,.79,0,1.18.05a14.74,14.74,0,0,0,0,27.31c-.36,0-.74,0-1.11,0a13.7,13.7,0,0,1-14.12-13.7V403C154.33,395.49,160.19,389.4,168.37,389.4Z" transform="translate(-0.5 0.5)"/>
          <path class="cls-21" d="M182.49,403.2v0Z" transform="translate(-0.5 0.5)"/>
          <path class="cls-22" d="M171.19,410.93Z" transform="translate(-0.5 0.5)"/>
          <path class="cls-23" d="M171.19,410.93Z" transform="translate(-0.5 0.5)"/>
          <path class="cls-24" d="M174.08,411.61A8.29,8.29,0,0,1,171,411l.23-.08h0a8.19,8.19,0,0,0,5.41-7.83V403a8.07,8.07,0,0,0-5.31-7.75l0,0a8.62,8.62,0,0,1,2.75-.46,8.41,8.41,0,0,1,8.41,8.4v.15A8.41,8.41,0,0,1,174.08,411.61Z" transform="translate(-0.5 0.5)"/>
          <path class="cls-25" d="M174.08,411.61A8.29,8.29,0,0,1,171,411l.23-.08h0a8.19,8.19,0,0,0,5.41-7.83V403a8.07,8.07,0,0,0-5.31-7.75l0,0a8.62,8.62,0,0,1,2.75-.46,8.41,8.41,0,0,1,8.41,8.4v.15A8.41,8.41,0,0,1,174.08,411.61Z" transform="translate(-0.5 0.5)"/>
        </g>
      </g>
      <g id="brazoDerecho">
        <path class="cls-26" d="M112.61,396.68c3.3,11.51.69,22.37-5.85,24.24S92.25,415,88.94,403.47s-.68-22.36,5.85-24.24S109.3,385.17,112.61,396.68Z" transform="translate(-0.5 0.5)"/>
        <path class="cls-27" d="M104.67,418.08a.43.43,0,0,1-.43-.39.42.42,0,0,1,.39-.44,4.78,4.78,0,0,0,3.84-2.69c2.72-4.66,2.19-13.47-1.22-20.49-4.07-8.38-10.58-11.73-14.28-10a.41.41,0,0,1-.55-.2.41.41,0,0,1,.2-.55c4.65-2.15,11.55,2.52,15.38,10.41,3.52,7.24,4,16.39,1.19,21.27a5.64,5.64,0,0,1-4.51,3.1Z" transform="translate(-0.5 0.5)"/>
        <g>
          <path class="cls-5" d="M68.89,439.62C71.64,406,83.23,390.39,86,387.1a2.72,2.72,0,0,1,1.59-.94c2.3-.45,8.38-.6,15.37,7.36,4.83,5.49,4.65,15.39,4.34,15.9-3.2,5.39-23.33,39.32-28.37,50.71C73.43,472.51,67.72,454,68.89,439.62Z" transform="translate(-0.5 0.5)"/>
          <path class="cls-6" d="M103,393.55A27.24,27.24,0,0,0,96.61,388c.73.69,1.48,1.45,2.24,2.32,6.09,6.93,4.27,12.38,2.91,16.12-4.87,13.41-20.27,39.06-23.13,54.38l.33-.7c5-11.39,25.16-45.32,28.37-50.7C107.64,408.94,107.82,399,103,393.55Z" transform="translate(-0.5 0.5)"/>
          <path class="cls-7" d="M84.65,399c-14,13-13.5,53-13.5,53s6.76-28.43,13.06-40.73S89.43,394.51,84.65,399Z" transform="translate(-0.5 0.5)"/>
          <path class="cls-6" d="M82,453.3A44.05,44.05,0,0,0,82.5,459c.13.51,3,2.71,3,2.44-.11-2.4.46-15,2.35-18.47C88.48,441.77,81.75,451,82,453.3Z" transform="translate(-0.5 0.5)"/>
          <path class="cls-8" d="M88.13,443.34a.39.39,0,0,1-.33-.18c-3.68-5.9-11.31-10.3-18.18-6.82a.38.38,0,1,1-.35-.68c7.28-3.69,15.32.91,19.19,7.1a.39.39,0,0,1-.13.53A.35.35,0,0,1,88.13,443.34Z" transform="translate(-0.5 0.5)"/>
        </g>
        <g>
          <path class="cls-28" d="M92.78,408.47c-.18,5.69-4.48,10.18-9.6,10s-9.15-4.9-9-10.59,4.47-10.18,9.59-10S93,402.77,92.78,408.47Z" transform="translate(-0.5 0.5)"/>
          <g>
            <path class="cls-29" d="M77.14,409.07c-.13,1.91.94,3.91,2,5.44a19,19,0,0,0,2.24,2.57s5.92-1.52,7.55-4.92c.34-.71,1.89-5.16,1.89-5.16s.47-1.08-.41-1.57a28.52,28.52,0,0,1-3-1.7,8.84,8.84,0,0,0-2-1.29c-.57-.2-.82-.09-1.86,0a32.83,32.83,0,0,1-3.53-.09c-1,0-1.17,1.17-1.17,1.17A57.38,57.38,0,0,0,77.14,409.07Z" transform="translate(-0.5 0.5)"/>
            <path class="cls-30" d="M78.89,403.51a58,58,0,0,0-1.75,5.55c-.25,3.84,4.28,8,4.28,8h0s5.92-1.52,7.55-4.92c.34-.71,1.89-5.16,1.89-5.16s.47-1.08-.41-1.57a30.43,30.43,0,0,1-3-1.7,8.36,8.36,0,0,0-2-1.29c-.57-.2-.82-.09-1.86,0a32.83,32.83,0,0,1-3.53-.09C79,402.31,78.89,403.51,78.89,403.51Zm.94-.2.87,0a10.66,10.66,0,0,0,2.72,0c1.87-.36,2.45.59,3.35,1.24a17.4,17.4,0,0,0,2.31,1.34l.75.39a.85.85,0,0,1,0,.22.17.17,0,0,0,0,.06c-.59,1.71-1.62,4.59-1.85,5.07-.71,1.48-2.49,2.57-3.87,3.22a18.07,18.07,0,0,1-2.29.91,19.69,19.69,0,0,1-1.59-1.92A8.75,8.75,0,0,1,78.32,409a36,36,0,0,1,1.42-5.39S79.83,403.31,79.83,403.31Z" transform="translate(-0.5 0.5)"/>
            <path class="cls-31" d="M77.14,409.07c-.15,2.22,1.32,4.56,2.57,6.13-1.15-1.55-2.31-3.63-2.18-5.62.06-.8,1.76-5.55,1.76-5.55s.13-1.2,1.17-1.18a30.43,30.43,0,0,0,3.53.09c1-.08,1.29-.19,1.86,0a8.57,8.57,0,0,1,2,1.28,26,26,0,0,0,3,1.7l.08.05a1,1,0,0,0-.48-.56,28.52,28.52,0,0,1-3-1.7,8.17,8.17,0,0,0-2-1.29c-.57-.21-.82-.09-1.86,0a32.83,32.83,0,0,1-3.53-.09c-1,0-1.17,1.17-1.17,1.17A57.38,57.38,0,0,0,77.14,409.07Z" transform="translate(-0.5 0.5)"/>
            <path class="cls-30" d="M83,409.17a.4.4,0,0,0,.09.35l-.07.28a.07.07,0,0,0,0,.09l.23.06a.08.08,0,0,0,.09-.06l.07-.28a.37.37,0,0,0,0-.71A.37.37,0,0,0,83,409.17Z" transform="translate(-0.5 0.5)"/>
            <path class="cls-30" d="M83.05,407.26l-.15.55,1.64.43.15-.54a.85.85,0,1,0-1.64-.44Z" transform="translate(-0.5 0.5)"/>
            <path class="cls-30" d="M80.07,404.83s-1,3.51-1.08,4.1c-.21,2.85,3,6.13,3,6.13h0s4.2-1.18,5.39-3.73c.25-.53,1.39-3.86,1.39-3.86s.35-.81-.27-1.17a16.21,16.21,0,0,1-2.11-1.23c-.36-.27-.69-.49-1-.66a3.34,3.34,0,0,0-.6-.32h0a2.37,2.37,0,0,0-1.23-.09,18.4,18.4,0,0,1-2.49,0C80.32,404,80.07,404.83,80.07,404.83Zm1.51,3.11a.46.46,0,0,1,.56-.33l.12,0,.14-.55a1.52,1.52,0,1,1,2.93.78l-.15.54.12,0a.46.46,0,0,1,.33.57l-.56,2.12a.47.47,0,0,1-.56.34l-3.17-.84a.45.45,0,0,1-.32-.56Z" transform="translate(-0.5 0.5)"/>
            <path class="cls-31" d="M79,408.93c-.15,2,1.44,4.32,2.35,5.44-.91-1.22-2.08-3.16-2-4.92,0-.6,1.08-4.1,1.08-4.1s.25-.88,1-.87a18.53,18.53,0,0,0,2.49,0,2.21,2.21,0,0,1,1.23.1h0a4.56,4.56,0,0,1,.6.33,11.33,11.33,0,0,1,1,.66,15.91,15.91,0,0,0,2.06,1.2.69.69,0,0,0-.35-.49,17.44,17.44,0,0,1-2.11-1.23c-.36-.27-.69-.49-1-.66a5.59,5.59,0,0,0-.6-.32h0a2.26,2.26,0,0,0-1.23-.11,18.53,18.53,0,0,1-2.49,0c-.73,0-1,.87-1,.87S79,408.33,79,408.93Z" transform="translate(-0.5 0.5)"/>
          </g>
        </g>
      </g>
      <g id="cabeza">
        <g>
          <path class="cls-5" d="M106.56,352.78c10.94,14.09,44.44,11.4,53.78,10.51s25.15-2.51,30.84-19.7,2.85-43.4-12.81-57-57.58-11.4-71.81,7S102.76,347.89,106.56,352.78Z" transform="translate(-0.5 0.5)"/>
          <path class="cls-16" d="M109.45,297.27c.62-.22,13.56-10.28,37-12.28,8.07-.7,20.64,0,28.7,1.11-.8-.85-12.38-7.54-36.28-5.05A47.18,47.18,0,0,0,109.45,297.27Z" transform="translate(-0.5 0.5)"/>
          <path class="cls-7" d="M152,293.11c-7.54.12-15.1.66-22.21,3.36l-.16.06c7.38,15.63,8,36,3.66,50.56a30.7,30.7,0,0,1-6.28,11.8c13,2.29,27.62,1.1,33.29.56,6.17-.59,15.18-1.51,22.22-7a35.23,35.23,0,0,0,2-5.33c4.38-14.75,3.7-35.46-4-51.17A122.09,122.09,0,0,0,152,293.11Z" transform="translate(-0.5 0.5)"/>
          <path class="cls-32" d="M124.77,307c4.35-5.91,16.2-7.46,31-8.34,19.16-1.15,25.64,2.32,27.6,4.53s5.35,13.22,4.62,23.91-.85,13.91-5.25,16.57-17.1,5.26-25.31,5.46c-15.56.38-23.4-.38-28.6-3.43-2.66-1.56-6-10-6.57-20.35S122.52,310.05,124.77,307Z" transform="translate(-0.5 0.5)"/>
          <path class="cls-33" d="M155.28,300.3c-9.23.53-17.24,1.33-22.88,3.32,4.93,13.69,5,29.93,1.3,41.94,0,.14-.09.27-.13.4,4.93,1.43,12,1.77,23.29,1.5,7.88-.19,20.07-2.62,24.29-5.1a7.52,7.52,0,0,0,3.31-3.45,71.71,71.71,0,0,0-2.44-34,2.13,2.13,0,0,0-.27-.35C179.87,302.47,173.66,299.23,155.28,300.3Z" transform="translate(-0.5 0.5)"/>
          <path class="cls-9" d="M114.7,316.82c-.26,5.8-3.51,10.38-7.25,10.21s-6.57-5-6.31-10.82,3.5-10.38,7.25-10.21S115,311,114.7,316.82Z" transform="translate(-0.5 0.5)"/>
          <path class="cls-34" d="M111.73,316.38c-.18,4.08-2.17,7.3-4.43,7.2s-4-3.49-3.79-7.57,2.17-7.3,4.44-7.2S111.91,312.3,111.73,316.38Z" transform="translate(-0.5 0.5)"/>
          <path class="cls-27" d="M111.79,316.69l-.38,0,.38,0a14.25,14.25,0,0,0-1.7-7.74c-1.26-2.16-3-3.4-5-3.48-3.94-.18-7.39,4.57-7.65,10.58s2.73,11,6.68,11.22h.21C108.22,327.27,111.53,322.59,111.79,316.69Zm-6.71-10.46c1.68.08,3.22,1.18,4.34,3.11a13.47,13.47,0,0,1,1.61,7.31c-.25,5.59-3.33,10-6.85,9.85s-6.19-4.83-5.94-10.42,3.21-9.85,6.66-9.85Z" transform="translate(-0.5 0.5)"/>
          <path class="cls-7" d="M104.61,330.28l2.75.09s1.17,11.42,4.46,18.12,8,8.85,8,8.85-7-2.28-11.25-11C105.49,340.11,104.61,330.28,104.61,330.28Z" transform="translate(-0.5 0.5)"/>
          <path class="cls-35" d="M127.35,307.86v0a1.45,1.45,0,0,0,2.09.49c1.34-.91,3.38-2.28,4.55-2.91,1.85-1,11-4.39,11-4.39s-9.17.19-17,4.42A1.74,1.74,0,0,0,127.35,307.86Z" transform="translate(-0.5 0.5)"/>
        </g>
        <path class="cls-36" d="M120.16,315.48c0,1.8-.83,3.26-1.87,3.26s-1.87-1.46-1.87-3.26.84-3.26,1.87-3.26S120.16,313.68,120.16,315.48Z" transform="translate(-0.5 0.5)"/>
      </g>
      <g id="ojos">
        <g>
          <rect class="cls-37" x="141.89" y="311.55" width="13.21" height="17.26" rx="4.73"/>
          <rect class="cls-37" x="143.28" y="313.41" width="10.44" height="13.55" rx="4.73"/>
          <rect class="cls-38" x="145.04" y="315.15" width="7.25" height="10.55" rx="2.94"/>
          <path class="cls-39" d="M152,318.71h-5.95a.29.29,0,0,1-.29-.29.28.28,0,0,1,.29-.28H152a.28.28,0,0,1,.29.28A.29.29,0,0,1,152,318.71Z" transform="translate(-0.5 0.5)"/>
          <path class="cls-39" d="M152,320h-5.95a.29.29,0,0,1,0-.58H152a.29.29,0,0,1,0,.58Z" transform="translate(-0.5 0.5)"/>
          <path class="cls-39" d="M152,321.27h-5.95a.29.29,0,1,1,0-.57H152a.29.29,0,1,1,0,.57Z" transform="translate(-0.5 0.5)"/>
          <path class="cls-39" d="M151.25,316.3h-4.43a.29.29,0,0,1,0-.58h4.43a.29.29,0,0,1,0,.58Z" transform="translate(-0.5 0.5)"/>
          <path class="cls-39" d="M152,317.61h-5.95a.29.29,0,0,1,0-.58H152a.29.29,0,0,1,0,.58Z" transform="translate(-0.5 0.5)"/>
          <path class="cls-39" d="M152,322.82h-5.95a.29.29,0,0,1-.29-.29.28.28,0,0,1,.29-.28H152a.28.28,0,0,1,.29.28A.29.29,0,0,1,152,322.82Z" transform="translate(-0.5 0.5)"/>
          <path class="cls-39" d="M152,324.08h-5.95a.29.29,0,1,1,0-.58H152a.29.29,0,0,1,0,.58Z" transform="translate(-0.5 0.5)"/>
        </g>
        <g>
          <rect class="cls-37" x="165.62" y="311.24" width="13.21" height="17.26" rx="4.73"/>
          <rect class="cls-37" x="167.01" y="313.09" width="10.44" height="13.55" rx="4.73"/>
          <rect class="cls-38" x="168.76" y="314.83" width="7.25" height="10.55" rx="2.94"/>
          <path class="cls-39" d="M175.74,318.4h-6a.29.29,0,1,1,0-.58h6a.29.29,0,1,1,0,.58Z" transform="translate(-0.5 0.5)"/>
          <path class="cls-39" d="M175.74,319.66h-6a.29.29,0,0,1,0-.58h6a.29.29,0,1,1,0,.58Z" transform="translate(-0.5 0.5)"/>
          <path class="cls-39" d="M175.74,321h-6a.29.29,0,1,1,0-.58h6a.29.29,0,1,1,0,.58Z" transform="translate(-0.5 0.5)"/>
          <path class="cls-39" d="M175,316h-4.43a.29.29,0,1,1,0-.58H175a.29.29,0,1,1,0,.58Z" transform="translate(-0.5 0.5)"/>
          <path class="cls-39" d="M175.74,317.29h-6a.29.29,0,1,1,0-.57h6a.29.29,0,1,1,0,.57Z" transform="translate(-0.5 0.5)"/>
          <path class="cls-39" d="M175.74,322.51h-6a.29.29,0,1,1,0-.58h6a.29.29,0,1,1,0,.58Z" transform="translate(-0.5 0.5)"/>
          <path class="cls-39" d="M175.74,323.77h-6a.29.29,0,1,1,0-.58h6a.29.29,0,1,1,0,.58Z" transform="translate(-0.5 0.5)"/>
        </g>
      </g>
      <path id="boca" class="cls-40" d="M151.75,337.16c6,.76,16.66,1.35,16.66,1.35s-9.46,1-15.63-.1S145.34,336.35,151.75,337.16Z" transform="translate(-0.5 0.5)"/>
    </g>
  </g>
</svg>
