<svg xmlns="http://www.w3.org/2000/svg" xmlns:xlink="http://www.w3.org/1999/xlink" width="1024" height="620" viewBox="0 0 1024 620">
  <defs>
    <style>
      .cls-1 {
        isolation: isolate;
      }

      .cls-2 {
        fill: none;
      }

      .cls-3 {
        fill: #e2eafb;
      }

      .cls-4 {
        fill: #cbdcf9;
      }

      .cls-5 {
        fill: #f9faff;
      }

      .cls-6 {
        fill: #80a6f5;
      }

      .cls-7 {
        fill: #9ebbfa;
      }

      .cls-8 {
        fill: #b7cff8;
      }

      .cls-25, .cls-30, .cls-9 {
        fill: #207bff;
      }

      .cls-9 {
        opacity: 0.4;
      }

      .cls-10 {
        fill: #004bff;
        opacity: 0.5;
        mix-blend-mode: multiply;
      }

      .cls-11 {
        fill: #c4d7f9;
      }

      .cls-12 {
        fill: url(#_ÂÁ_Ï_ÌÌ_È_ËÂÌÚ_3);
      }

      .cls-13 {
        fill: #4aeaff;
      }

      .cls-14, .cls-29 {
        fill: #fff;
      }

      .cls-15 {
        fill: #bdf8ff;
      }

      .cls-16 {
        fill: url(#linear-gradient);
      }

      .cls-17 {
        fill: #eb1c24;
      }

      .cls-18 {
        fill: url(#linear-gradient-2);
      }

      .cls-19 {
        fill: url(#linear-gradient-3);
      }

      .cls-20 {
        fill: url(#linear-gradient-4);
      }

      .cls-21 {
        fill: url(#linear-gradient-5);
      }

      .cls-22 {
        fill: url(#linear-gradient-6);
      }

      .cls-23 {
        fill: url(#linear-gradient-7);
      }

      .cls-24 {
        fill: #92b3fa;
      }

      .cls-26 {
        fill: url(#_ÂÁ_Ï_ÌÌ_È_ËÂÌÚ_14);
      }

      .cls-27 {
        fill: url(#_ÂÁ_Ï_ÌÌ_È_ËÂÌÚ_2);
      }

      .cls-28 {
        fill: #4880f7;
      }

      .cls-29 {
        opacity: 0.8;
      }

      .cls-30 {
        opacity: 0.72;
      }

      .cls-31, .cls-32, .cls-33, .cls-34 {
        fill: #3ae5fa;
      }

      .cls-31, .cls-35 {
        opacity: 0.1;
      }

      .cls-32 {
        opacity: 0.3;
      }

      .cls-34 {
        opacity: 0.7;
      }

      .cls-35, .cls-36 {
        fill: #51b2fb;
      }

      .cls-36 {
        opacity: 0.2;
      }
    </style>
    <radialGradient id="_ÂÁ_Ï_ÌÌ_È_ËÂÌÚ_3" data-name="¡ÂÁ˚ÏˇÌÌ˚È „‡‰ËÂÌÚ 3" cx="3058.14" cy="480.83" r="8.24" gradientTransform="translate(-2863.05)" gradientUnits="userSpaceOnUse">
      <stop offset="0" stop-color="#4aeaff"/>
      <stop offset="1" stop-color="#00709d"/>
    </radialGradient>
    <linearGradient id="linear-gradient" x1="1505.11" y1="336.87" x2="1505.11" y2="382.32" gradientTransform="matrix(-1, 0, 0, 1, 1705.34, 0)" gradientUnits="userSpaceOnUse">
      <stop offset="0.02" stop-color="#dc2a21"/>
      <stop offset="0.06" stop-color="#c7201b"/>
      <stop offset="0.1" stop-color="#b61717"/>
      <stop offset="0.15" stop-color="#ab1113"/>
      <stop offset="0.22" stop-color="#a40e12"/>
      <stop offset="0.43" stop-color="#a20d11"/>
      <stop offset="0.79" stop-color="#6b0006"/>
    </linearGradient>
    <linearGradient id="linear-gradient-2" x1="1491.91" y1="338.9" x2="1491.91" y2="371.52" gradientTransform="matrix(-1, 0, 0, 1, 1705.34, 0)" gradientUnits="userSpaceOnUse">
      <stop offset="0" stop-color="#ac1a27"/>
      <stop offset="0.08" stop-color="#9e151f"/>
      <stop offset="0.28" stop-color="#7d0a0e"/>
      <stop offset="0.44" stop-color="#680304"/>
      <stop offset="0.56" stop-color="#610000"/>
      <stop offset="0.73" stop-color="#520000"/>
      <stop offset="1" stop-color="#3f0000"/>
    </linearGradient>
    <linearGradient id="linear-gradient-3" x1="-570.86" y1="355.69" x2="-549.68" y2="355.69" gradientTransform="translate(734.8)" gradientUnits="userSpaceOnUse">
      <stop offset="0" stop-color="#bd1349"/>
      <stop offset="0.24" stop-color="#bd124e"/>
      <stop offset="0.25" stop-color="#bd124e"/>
      <stop offset="1" stop-color="#7a0025"/>
    </linearGradient>
    <linearGradient id="linear-gradient-4" x1="-577.8" y1="366.53" x2="-549.58" y2="366.53" gradientTransform="translate(734.8)" gradientUnits="userSpaceOnUse">
      <stop offset="0" stop-color="#282880"/>
      <stop offset="0.27" stop-color="#26257c"/>
      <stop offset="0.56" stop-color="#1f1b6f"/>
      <stop offset="0.85" stop-color="#140b5a"/>
      <stop offset="1" stop-color="#0d004c"/>
    </linearGradient>
    <linearGradient id="linear-gradient-5" x1="-571.13" y1="366.53" x2="-549.68" y2="366.53" xlink:href="#linear-gradient-3"/>
    <linearGradient id="linear-gradient-6" x1="-566.78" y1="355.61" x2="-539.82" y2="355.61" xlink:href="#linear-gradient-4"/>
    <linearGradient id="linear-gradient-7" x1="1512.49" y1="365.45" x2="1512.49" y2="350.02" gradientTransform="matrix(-1, 0, 0, 1, 1705.34, 0)" gradientUnits="userSpaceOnUse">
      <stop offset="0" stop-color="#ec2d24"/>
      <stop offset="0.12" stop-color="#ec2824"/>
      <stop offset="0.25" stop-color="#eb1c24"/>
      <stop offset="1" stop-color="#74020d"/>
    </linearGradient>
    <linearGradient id="_ÂÁ_Ï_ÌÌ_È_ËÂÌÚ_14" data-name="¡ÂÁ˚ÏˇÌÌ˚È „‡‰ËÂÌÚ 14" x1="2963.21" y1="383.7" x2="3054.92" y2="383.7" gradientTransform="translate(-2838.4 13.43) rotate(-2.88)" gradientUnits="userSpaceOnUse">
      <stop offset="0" stop-color="#003a6b"/>
      <stop offset="1" stop-color="#00204c"/>
    </linearGradient>
    <linearGradient id="_ÂÁ_Ï_ÌÌ_È_ËÂÌÚ_2" data-name="¡ÂÁ˚ÏˇÌÌ˚È „‡‰ËÂÌÚ 2" x1="3028.78" y1="207.01" x2="3075.25" y2="285.3" gradientTransform="translate(-2863.05)" gradientUnits="userSpaceOnUse">
      <stop offset="0" stop-color="#cad6e0"/>
      <stop offset="0.05" stop-color="#aec0d0"/>
      <stop offset="0.15" stop-color="#7998b1"/>
      <stop offset="0.25" stop-color="#4e7698"/>
      <stop offset="0.35" stop-color="#2c5c84"/>
      <stop offset="0.44" stop-color="#144976"/>
      <stop offset="0.53" stop-color="#053e6e"/>
      <stop offset="0.6" stop-color="#003a6b"/>
      <stop offset="1" stop-color="#00204c"/>
    </linearGradient>
  </defs>
  <title>robot</title>
  <g class="cls-1">
    <g id="prosabot_brazos_up" data-name="prosabot brazos up">
      <g id="fondo">
        <rect class="cls-2" width="1024" height="620"/>
      </g>
      <g id="brazoDerecho">
        <g>
          <path class="cls-3" d="M286.7,379.81c-13.54-50.15-37.94-67-37.94-67s-10.49-2.07-20.45,13.52a26,26,0,0,0-3,21.32s41.78,46.59,52.38,61.8S291.79,398.65,286.7,379.81Z" transform="translate(-0.5 -0.5)"/>
          <path class="cls-3" d="M286.7,379.81c-13.54-50.15-37.94-67-37.94-67s-10.49-2.07-20.45,13.52a26,26,0,0,0-3,21.32s41.78,46.59,52.38,61.8S291.79,398.65,286.7,379.81Z" transform="translate(-0.5 -0.5)"/>
          <path class="cls-4" d="M283.7,387.91c-9.48-29.62-18.11-43.76-26.59-51.61-14.56-13.47-25.51-11.09-32.39-.86a25.54,25.54,0,0,1,3.59-9.14c10-15.59,20.45-13.52,20.45-13.52s24.4,16.88,37.94,67c3.52,13,2.95,29.44-1.24,33.33C285.77,411.74,289.34,405.55,283.7,387.91Z" transform="translate(-0.5 -0.5)"/>
          <path class="cls-3" d="M260.1,386.45c2.35,3.11,3.67,9.56,3.52,12.68a28.83,28.83,0,0,1-2,7.55,4.8,4.8,0,0,0,5.09-1.24c2.52-2.37,3.25-6.5,3.76-8.31S260.1,386.45,260.1,386.45Z" transform="translate(-0.5 -0.5)"/>
          <path class="cls-5" d="M257.09,349.26A162.71,162.71,0,0,0,244.75,336c-2.18-2-.05-4,1.94-2.62,4.33,3,10.63,10.08,18.48,20.35,4.6,6,16.95,30.25,18.3,46.21C283.05,399.25,276.76,372.54,257.09,349.26Z" transform="translate(-0.5 -0.5)"/>
          <path class="cls-6" d="M286.13,374.65l0,0a.58.58,0,0,0-.78.17c-5.47,8.52-16.86,14.89-27.19,10a.57.57,0,0,0-.76.24.53.53,0,0,0,.26.73c10.93,5.23,22.92-1.43,28.65-10.35A.53.53,0,0,0,286.13,374.65Z" transform="translate(-0.5 -0.5)"/>
        </g>
        <path class="cls-7" d="M249.76,330.77c.85-13.78-3.48-25.23-9.66-25.58s-11.87,10.54-12.71,24.31,3.48,25.23,9.66,25.58S248.92,344.54,249.76,330.77Z" transform="translate(-0.5 -0.5)"/>
      </g>
      <g id="torso">
        <path class="cls-3" d="M113.22,303.26c-6.4-.41-29,22.23-22.18,44.2s45.26,95.29,54,121,13.93,32,26.32,34.32,31.11,3.17,52.81-42.14,25-96.21,26-120.39-1.55-33.77-10-36.53C220.47,297.24,113.22,303.26,113.22,303.26Z" transform="translate(-0.5 -0.5)"/>
        <path class="cls-5" d="M215.39,455.26c16.83-47.67,14.8-98.91,13.24-123.19-1-16.14-2.94-25.66-6.66-30.77-17.92-1-44.11-.57-66.3.14,11.87,31.3,29.4,84,32.32,138.3,1.95,36.22-3.05,53.92-10,63C189.31,500.47,202.87,490.73,215.39,455.26Z" transform="translate(-0.5 -0.5)"/>
        <path class="cls-8" d="M242.06,305.69c0,4.7-33.19,12-66.68,12s-66.71-7.12-66.72-11.82,33.21-5.13,66.69-5.18S242.05,301,242.06,305.69Z" transform="translate(-0.5 -0.5)"/>
        <path class="cls-9" d="M221.81,306.65c0,3.25-22.86,8.29-45.93,8.33s-45.95-4.93-46-8.18,22.88-3.55,45.94-3.58S221.81,303.4,221.81,306.65Z" transform="translate(-0.5 -0.5)"/>
        <path class="cls-10" d="M207.78,308.33c0,1.25-15.77,2.82-31.14,2.85s-30.08-1.5-30.08-2.75,14.71-1.73,30.07-1.76S207.77,307.09,207.78,308.33Z" transform="translate(-0.5 -0.5)"/>
        <path class="cls-11" d="M158.8,473.72c-3.56-19.21-8.87-82-21.5-126.37-6.33-22.23-21.23-37.91-35.65-32.94-10.24,3.53-14.28,21.17-10.61,33,6.8,22,45.26,95.29,54,121s13.93,32,26.32,34.32c6.38,1.19,14.44,2,23.72-3.7C182.5,501,164.69,505.54,158.8,473.72Z" transform="translate(-0.5 -0.5)"/>
        <path class="cls-12" d="M203.12,483.08a22.62,22.62,0,0,1-7.63,1.26,35.8,35.8,0,0,1-8.54-.62c-1.59-.41-3-1.44-3-3.18h0a3.09,3.09,0,0,1,3-3.16s6.57.73,8.17.71a58.06,58.06,0,0,0,8.29-.77c1.64,0,3.18.48,2.69,2.84C205.88,481.25,205.11,482.34,203.12,483.08Z" transform="translate(-0.5 -0.5)"/>
        <path class="cls-13" d="M202.07,482.73a23.18,23.18,0,0,1-6.59.89,36.51,36.51,0,0,1-7.39-.44c-1.37-.29-2.57-1-2.57-2.27h0a2.44,2.44,0,0,1,2.58-2.25s5.68.52,7.06.51a60.17,60.17,0,0,0,7.17-.55c1.42,0,2.75.34,2.32,2C204.45,481.43,203.79,482.2,202.07,482.73Z" transform="translate(-0.5 -0.5)"/>
        <path class="cls-6" d="M193.65,468.59c-15.09,0-33.59-3.27-53.54-11.47a.54.54,0,0,1-.3-.7.55.55,0,0,1,.7-.29c37.18,15.28,69.17,13.34,83.16,5.07a.54.54,0,0,1,.73.19.53.53,0,0,1-.19.73C217.56,466.06,206.93,468.59,193.65,468.59Z" transform="translate(-0.5 -0.5)"/>
        <path class="cls-14" d="M193.25,467.39c-15.08,0-33.58-3.26-53.54-11.47a.53.53,0,0,1-.29-.69.54.54,0,0,1,.7-.3c37.18,15.29,69.17,13.35,83.16,5.08a.53.53,0,1,1,.54.92C217.17,464.86,206.53,467.39,193.25,467.39Z" transform="translate(-0.5 -0.5)"/>
        <path class="cls-5" d="M247.36,315.65c2.86,58.1-5.52,85.6-5.52,85.6s8-43.9.62-86.33C241.45,309.1,246.92,306.58,247.36,315.65Z" transform="translate(-0.5 -0.5)"/>
        <path class="cls-14" d="M113.78,311.6s6.61,4,30.78,6.22,56,1.82,56,1.82-29.32,3.88-56.1,1S113.78,311.6,113.78,311.6Z" transform="translate(-0.5 -0.5)"/>
        <path class="cls-15" d="M199,479c-1.17.1-2.53.18-3.87.19s-7.06-.51-7.06-.51a3.19,3.19,0,0,0-.54,0l2.61,4.76a51.87,51.87,0,0,0,5.31.15,24.24,24.24,0,0,0,6.14-.77Z" transform="translate(-0.5 -0.5)"/>
        <g>
          <path class="cls-16" d="M215.63,355.47a20.52,20.52,0,0,0-12.8-19c-.77.06-1.54.16-2.28.29a18.9,18.9,0,0,0-15.71,18c0,.21,0,.41,0,.62v.23a11.71,11.71,0,0,1,11.71-11.69,11.51,11.51,0,0,1,3.82.64c-1.15-.41-1.11-.42.07,0a11.26,11.26,0,0,1,4-.69c6.54,0,11.18,5.27,11.18,11.59v.11c0,6.32-4.54,11.49-11.07,11.49a11.47,11.47,0,0,1-3.61-.58,11.72,11.72,0,0,1-16.05-10.68,18.71,18.71,0,0,0,15.6,18.39,20.71,20.71,0,0,0,2.4.29A20.51,20.51,0,0,0,215.63,355.47Z" transform="translate(-0.5 -0.5)"/>
          <path class="cls-17" d="M208.24,355.61a11.71,11.71,0,0,1-7.37,10.87,11.47,11.47,0,0,0,3.61.58c6.53,0,11.07-5.17,11.07-11.49v-.11c0-6.32-4.64-11.59-11.18-11.59a11.26,11.26,0,0,0-4,.69c-1.18-.44-1.22-.43-.07,0A11.71,11.71,0,0,1,208.24,355.61Z" transform="translate(-0.5 -0.5)"/>
          <path class="cls-18" d="M204.48,336.39q-.84,0-1.65.06a20.52,20.52,0,0,1,0,38c.51,0,1,.06,1.55.06,11.39,0,19.66-8.59,19.66-19.08v-.1C224,344.87,215.86,336.39,204.48,336.39Z" transform="translate(-0.5 -0.5)"/>
          <path class="cls-19" d="M184.82,355.61v0Z" transform="translate(-0.5 -0.5)"/>
          <path class="cls-20" d="M200.55,366.37c-1.23.44-1.2.45,0,0Z" transform="translate(-0.5 -0.5)"/>
          <path class="cls-21" d="M200.55,366.37c-1.23.44-1.2.45,0,0Z" transform="translate(-0.5 -0.5)"/>
          <path class="cls-22" d="M196.53,367.31a11.6,11.6,0,0,0,4.34-.83l-.32-.11c-1.2.45-1.23.44,0,0A11.43,11.43,0,0,1,193,355.46v-.1a11.23,11.23,0,0,1,7.41-10.8l-.07,0a11.51,11.51,0,0,0-3.82-.64,11.71,11.71,0,0,0-11.71,11.69v.21A11.71,11.71,0,0,0,196.53,367.31Z" transform="translate(-0.5 -0.5)"/>
          <path class="cls-23" d="M196.53,367.31a11.6,11.6,0,0,0,4.34-.83l-.32-.11c-1.2.45-1.23.44,0,0A11.43,11.43,0,0,1,193,355.46v-.1a11.23,11.23,0,0,1,7.41-10.8l-.07,0a11.51,11.51,0,0,0-3.82-.64,11.71,11.71,0,0,0-11.71,11.69v.21A11.71,11.71,0,0,0,196.53,367.31Z" transform="translate(-0.5 -0.5)"/>
        </g>
      </g>
      <g id="brazoIzquierdo">
        <path class="cls-24" d="M133,342.33c-3.44-14.73-14.56-24.68-24.83-22.23s-15.82,16.36-12.38,31.09,14.56,24.67,24.83,22.23S136.42,357.05,133,342.33Z" transform="translate(-0.5 -0.5)"/>
        <path class="cls-25" d="M105.71,324.06c-7.36,3.67-11.75,14.76-10.06,26.8,1.92,13.74,11,23.6,20.34,22s15.29-14.15,13.37-27.89S118.31,321.33,109,323A11.92,11.92,0,0,0,105.71,324.06Zm13.13,46.82a10.82,10.82,0,0,1-3,1c-8.64,1.52-17.18-8-19-21.21s3.69-25.2,12.33-26.72,17.19,8,19,21.21C129.81,356.77,125.73,367.44,118.84,370.88Z" transform="translate(-0.5 -0.5)"/>
        <g>
          <path class="cls-3" d="M87.5,404.58c-13-40.55.19-59.4,7.33-68.29,2.1-2.61,10-11,18.66-8.35,10.19,3.14,12.57,19.9,12.28,22.88C124.62,362.39,114,407.1,112.43,423,110.72,440.39,93.06,421.9,87.5,404.58Z" transform="translate(-0.5 -0.5)"/>
          <path class="cls-4" d="M125.77,350.82c-.2,2-.67,4.88-1.31,8.44-2,10.3-5.82,28.18-8.64,43.18-1.61,8.35-2.91,15.79-3.39,20.6,0,.26-.05.52-.08.76-3.48-19.42,5.85-57.27,6.14-75.4.08-5,1.29-15.88-10.24-20.84a11.8,11.8,0,0,1,5.24.38C123.68,331.08,126.06,347.84,125.77,350.82Z" transform="translate(-0.5 -0.5)"/>
          <path class="cls-5" d="M89.83,348.82C76.08,371.48,97,417.73,97,417.73s-4.56-36.68-1.62-54.37S94.52,341.09,89.83,348.82Z" transform="translate(-0.5 -0.5)"/>
          <path class="cls-4" d="M113.4,413.48c1.47,2.57,2.37,4.84,3.68,6.35.44.52,5.68,1.56,5.53,1.25-1.38-2.73-6.94-17.75-5.93-22.74C117,396.57,111.94,410.91,113.4,413.48Z" transform="translate(-0.5 -0.5)"/>
          <path class="cls-6" d="M117.33,398.58a.68.68,0,0,1-.56,0c-8.35-4.89-21.65-5.91-29.88,1.82a.67.67,0,0,1-.83.08.43.43,0,0,1,0-.69c8.72-8.19,22.72-7.16,31.47-2a.43.43,0,0,1,.09.68A.65.65,0,0,1,117.33,398.58Z" transform="translate(-0.5 -0.5)"/>
        </g>
      </g>
      <g id="cabeza">
        <g>
          <path class="cls-3" d="M118.3,285.4C133.54,305,180.19,301.28,193.19,300s35-3.51,42.95-27.43,4-60.43-17.84-79.41-80.17-15.88-100,9.7S113,278.59,118.3,285.4Z" transform="translate(-0.5 -0.5)"/>
          <path class="cls-14" d="M122.33,208.12c.87-.31,18.88-14.32,51.5-17.11,11.23-1,28.73,0,40,1.55-1.11-1.18-17.25-10.5-50.52-7C155.15,186.37,136.33,191.45,122.33,208.12Z" transform="translate(-0.5 -0.5)"/>
          <path class="cls-5" d="M181.63,202.32c-10.5.17-21,.91-30.92,4.67l-.23.1c10.28,21.76,11.12,50.11,5.11,70.38a43,43,0,0,1-8.75,16.44c18.15,3.19,38.45,1.53,46.35.78,8.59-.82,21.14-2.1,30.94-9.79a48.74,48.74,0,0,0,2.84-7.43c6.1-20.54,5.15-49.37-5.51-71.23A169.12,169.12,0,0,0,181.63,202.32Z" transform="translate(-0.5 -0.5)"/>
          <path class="cls-26" d="M143.66,221.64c6.06-8.23,22.56-10.38,43.23-11.61,26.67-1.59,35.69,3.23,38.42,6.32s7.45,18.4,6.44,33.29-1.19,19.36-7.31,23.06-23.82,7.33-35.25,7.61c-21.65.53-32.57-.53-39.81-4.78-3.7-2.18-8.41-13.89-9.15-28.33S140.53,225.91,143.66,221.64Z" transform="translate(-0.5 -0.5)"/>
          <path class="cls-27" d="M186.14,212.32c-12.84.75-24,1.86-31.85,4.63,6.87,19.06,6.91,41.67,1.81,58.4,0,.19-.12.37-.18.56,6.86,2,16.68,2.46,32.43,2.09,11-.26,27.94-3.65,33.82-7.11a10.5,10.5,0,0,0,4.6-4.8,99.64,99.64,0,0,0-3.39-47.38,5.37,5.37,0,0,0-.38-.48C220.39,215.35,211.73,210.84,186.14,212.32Z" transform="translate(-0.5 -0.5)"/>
          <ellipse class="cls-7" cx="120.2" cy="234.91" rx="14.66" ry="9.45" transform="translate(-120.31 344.06) rotate(-87.46)"/>
          <path class="cls-28" d="M125.51,234.72c-.25,5.67-3,10.16-6.18,10s-5.51-4.85-5.26-10.53,3-10.16,6.18-10S125.76,229,125.51,234.72Z" transform="translate(-0.5 -0.5)"/>
          <path class="cls-25" d="M125.6,235.14l-.54,0,.54,0a19.83,19.83,0,0,0-2.38-10.76c-1.75-3-4.21-4.73-6.92-4.86-5.48-.24-10.28,6.37-10.65,14.74s3.8,15.37,9.3,15.62h.3C120.62,249.89,125.23,243.36,125.6,235.14Zm-9.35-14.55c2.34.11,4.48,1.64,6,4.32a18.8,18.8,0,0,1,2.23,10.19c-.35,7.78-4.63,13.91-9.53,13.71s-8.63-6.72-8.28-14.5,4.47-13.72,9.28-13.72Z" transform="translate(-0.5 -0.5)"/>
          <path class="cls-5" d="M115.59,254.07l3.83.13s1.63,15.89,6.21,25.23,11.09,12.32,11.09,12.32-9.8-3.17-15.67-15.27C116.83,267.76,115.59,254.07,115.59,254.07Z" transform="translate(-0.5 -0.5)"/>
          <path class="cls-29" d="M147.26,222.86v0a2,2,0,0,0,2.92.69c1.86-1.27,4.69-3.17,6.32-4.06,2.58-1.4,15.32-6.11,15.32-6.11s-12.77.27-23.61,6.16A2.41,2.41,0,0,0,147.26,222.86Z" transform="translate(-0.5 -0.5)"/>
        </g>
        <path class="cls-30" d="M137.25,233.46c0,2.51-1.17,4.55-2.6,4.55s-2.61-2-2.61-4.55,1.17-4.54,2.61-4.54S137.25,231,137.25,233.46Z" transform="translate(-0.5 -0.5)"/>
      </g>
      <g id="ojos">
        <g>
          <rect class="cls-31" x="167.7" y="226.8" width="18.4" height="24.03" rx="6.6"/>
          <rect class="cls-31" x="169.63" y="229.38" width="14.54" height="18.87" rx="6.6"/>
          <rect class="cls-32" x="172.08" y="231.8" width="10.09" height="14.69" rx="4.09"/>
          <path class="cls-33" d="M181.59,238h-8.28a.41.41,0,0,1,0-.81h8.28a.41.41,0,0,1,0,.81Z" transform="translate(-0.5 -0.5)"/>
          <path class="cls-33" d="M181.59,239.72h-8.28a.41.41,0,0,1,0-.81h8.28a.41.41,0,0,1,0,.81Z" transform="translate(-0.5 -0.5)"/>
          <path class="cls-33" d="M181.59,241.53h-8.28a.4.4,0,0,1,0-.8h8.28a.4.4,0,1,1,0,.8Z" transform="translate(-0.5 -0.5)"/>
          <path class="cls-33" d="M180.54,234.61h-6.18a.4.4,0,0,1,0-.8h6.18a.4.4,0,0,1,0,.8Z" transform="translate(-0.5 -0.5)"/>
          <path class="cls-33" d="M181.59,236.42h-8.28a.39.39,0,0,1-.4-.4.4.4,0,0,1,.4-.4h8.28a.4.4,0,0,1,.4.4A.39.39,0,0,1,181.59,236.42Z" transform="translate(-0.5 -0.5)"/>
          <path class="cls-33" d="M181.59,243.69h-8.28a.4.4,0,0,1,0-.8h8.28a.4.4,0,0,1,0,.8Z" transform="translate(-0.5 -0.5)"/>
          <path class="cls-33" d="M181.59,245.44h-8.28a.4.4,0,0,1,0-.8h8.28a.4.4,0,0,1,0,.8Z" transform="translate(-0.5 -0.5)"/>
        </g>
        <g>
          <rect class="cls-31" x="197.02" y="226.8" width="18.4" height="24.03" rx="6.6"/>
          <rect class="cls-31" x="198.95" y="229.38" width="14.54" height="18.87" rx="6.6"/>
          <rect class="cls-32" x="201.4" y="231.8" width="10.09" height="14.69" rx="4.09"/>
          <path class="cls-33" d="M210.91,238h-8.29a.41.41,0,0,1,0-.81h8.29a.41.41,0,0,1,0,.81Z" transform="translate(-0.5 -0.5)"/>
          <path class="cls-33" d="M210.91,239.72h-8.29a.41.41,0,0,1,0-.81h8.29a.41.41,0,0,1,0,.81Z" transform="translate(-0.5 -0.5)"/>
          <path class="cls-33" d="M210.91,241.53h-8.29a.4.4,0,0,1,0-.8h8.29a.4.4,0,1,1,0,.8Z" transform="translate(-0.5 -0.5)"/>
          <path class="cls-33" d="M209.85,234.61h-6.17a.4.4,0,0,1,0-.8h6.17a.4.4,0,0,1,0,.8Z" transform="translate(-0.5 -0.5)"/>
          <path class="cls-33" d="M210.91,236.42h-8.29a.39.39,0,0,1-.4-.4.4.4,0,0,1,.4-.4h8.29a.4.4,0,0,1,.4.4A.39.39,0,0,1,210.91,236.42Z" transform="translate(-0.5 -0.5)"/>
          <path class="cls-33" d="M210.91,243.69h-8.29a.4.4,0,0,1,0-.8h8.29a.4.4,0,0,1,0,.8Z" transform="translate(-0.5 -0.5)"/>
          <path class="cls-33" d="M210.91,245.44h-8.29a.4.4,0,0,1,0-.8h8.29a.4.4,0,0,1,0,.8Z" transform="translate(-0.5 -0.5)"/>
        </g>
      </g>
      <path id="boca" class="cls-34" d="M181.23,263.66c8.31,1,23.2,1.88,23.2,1.88s-13.18,1.33-21.76-.14S172.3,262.52,181.23,263.66Z" transform="translate(-0.5 -0.5)"/>
      <g id="sombra">
        <g id="Sombra-2" data-name="Sombra">
          <ellipse class="cls-35" cx="187.02" cy="532.71" rx="66.21" ry="14.86"/>
          <path class="cls-36" d="M239.09,533.21c0,5.23-23.09,9.46-51.57,9.46s-51.58-4.23-51.58-9.46,23.09-9.45,51.58-9.45S239.09,528,239.09,533.21Z" transform="translate(-0.5 -0.5)"/>
          <path class="cls-36" d="M218.57,533.21c0,3.15-13.9,5.7-31,5.7s-31.06-2.55-31.06-5.7,13.91-5.69,31.06-5.69S218.57,530.07,218.57,533.21Z" transform="translate(-0.5 -0.5)"/>
        </g>
      </g>
    </g>
  </g>
</svg>
