<svg xmlns="http://www.w3.org/2000/svg" xmlns:xlink="http://www.w3.org/1999/xlink" width="1024" height="620" viewBox="0 0 1024 620">
  <defs>
    <style>
      .cls-1 {
        isolation: isolate;
      }

      .cls-2 {
        fill: none;
      }

      .cls-3, .cls-4 {
        fill: #51b2fb;
      }

      .cls-3, .cls-37 {
        opacity: 0.1;
      }

      .cls-4 {
        opacity: 0.2;
      }

      .cls-5 {
        fill: #e3ebfc;
      }

      .cls-6 {
        fill: #ccddfa;
      }

      .cls-7 {
        fill: #fafbff;
      }

      .cls-8 {
        fill: #80a7f6;
      }

      .cls-9 {
        fill: #9fbcfb;
      }

      .cls-10 {
        fill: #b8d0f9;
      }

      .cls-11, .cls-27, .cls-36 {
        fill: #207bff;
      }

      .cls-11, .cls-28 {
        opacity: 0.4;
      }

      .cls-12 {
        fill: #004bff;
        opacity: 0.5;
        mix-blend-mode: multiply;
      }

      .cls-13 {
        fill: #c5d8fa;
      }

      .cls-14 {
        fill: url(#_ÂÁ_Ï_ÌÌ_È_ËÂÌÚ_30);
      }

      .cls-15 {
        fill: #4aebff;
      }

      .cls-16, .cls-35 {
        fill: #fff;
      }

      .cls-17 {
        fill: #bef9ff;
      }

      .cls-18 {
        fill: url(#linear-gradient);
      }

      .cls-19 {
        fill: #ec1c24;
      }

      .cls-20 {
        fill: url(#linear-gradient-2);
      }

      .cls-21 {
        fill: url(#linear-gradient-3);
      }

      .cls-22 {
        fill: url(#linear-gradient-4);
      }

      .cls-23 {
        fill: url(#linear-gradient-5);
      }

      .cls-24 {
        fill: url(#linear-gradient-6);
      }

      .cls-25 {
        fill: url(#linear-gradient-7);
      }

      .cls-26 {
        fill: #93b4fb;
      }

      .cls-28 {
        mix-blend-mode: lighten;
        fill: url(#radial-gradient);
      }

      .cls-29 {
        fill: #00ffda;
      }

      .cls-30 {
        fill: #7fd1ca;
      }

      .cls-31 {
        fill: #1e1e1e;
      }

      .cls-32 {
        fill: url(#_ÂÁ_Ï_ÌÌ_È_ËÂÌÚ_14);
      }

      .cls-33 {
        fill: url(#_ÂÁ_Ï_ÌÌ_È_ËÂÌÚ_18);
      }

      .cls-34 {
        fill: #4880f8;
      }

      .cls-35 {
        opacity: 0.8;
      }

      .cls-36 {
        opacity: 0.72;
      }

      .cls-37, .cls-38, .cls-39, .cls-40 {
        fill: #3ae6fb;
      }

      .cls-38 {
        opacity: 0.3;
      }

      .cls-40 {
        opacity: 0.7;
      }
    </style>
    <radialGradient id="_ÂÁ_Ï_ÌÌ_È_ËÂÌÚ_30" data-name="¡ÂÁ˚ÏˇÌÌ˚È „‡‰ËÂÌÚ 30" cx="4463.1" cy="514.08" r="5.7" gradientTransform="translate(-4284.51)" gradientUnits="userSpaceOnUse">
      <stop offset="0" stop-color="#4aebff"/>
      <stop offset="1" stop-color="#00709e"/>
    </radialGradient>
    <linearGradient id="linear-gradient" x1="142.77" y1="414.48" x2="142.77" y2="445.92" gradientTransform="translate(45.19)" gradientUnits="userSpaceOnUse">
      <stop offset="0.02" stop-color="#dd2a21"/>
      <stop offset="0.06" stop-color="#c8201b"/>
      <stop offset="0.1" stop-color="#b71717"/>
      <stop offset="0.15" stop-color="#ac1113"/>
      <stop offset="0.22" stop-color="#a50e12"/>
      <stop offset="0.43" stop-color="#a30d11"/>
      <stop offset="0.79" stop-color="#6b0006"/>
    </linearGradient>
    <linearGradient id="linear-gradient-2" x1="133.64" y1="415.88" x2="133.64" y2="438.45" gradientTransform="translate(45.19)" gradientUnits="userSpaceOnUse">
      <stop offset="0" stop-color="#ad1a27"/>
      <stop offset="0.08" stop-color="#9e151f"/>
      <stop offset="0.28" stop-color="#7d090e"/>
      <stop offset="0.44" stop-color="#680304"/>
      <stop offset="0.56" stop-color="#610000"/>
      <stop offset="0.73" stop-color="#520000"/>
      <stop offset="1" stop-color="#3f0000"/>
    </linearGradient>
    <linearGradient id="linear-gradient-3" x1="802.3" y1="427.5" x2="817.32" y2="427.5" gradientTransform="matrix(-1, 0, 0, 1, 1015.73, 0)" gradientUnits="userSpaceOnUse">
      <stop offset="0" stop-color="#be1349"/>
      <stop offset="0.24" stop-color="#be124e"/>
      <stop offset="0.25" stop-color="#be124e"/>
      <stop offset="1" stop-color="#7a0025"/>
    </linearGradient>
    <linearGradient id="linear-gradient-4" x1="797.86" y1="435" x2="817.39" y2="435" gradientTransform="matrix(-1, 0, 0, 1, 1015.73, 0)" gradientUnits="userSpaceOnUse">
      <stop offset="0" stop-color="#282881"/>
      <stop offset="0.27" stop-color="#26257d"/>
      <stop offset="0.55" stop-color="#1f1b70"/>
      <stop offset="0.84" stop-color="#150c5b"/>
      <stop offset="1" stop-color="#0d004c"/>
    </linearGradient>
    <linearGradient id="linear-gradient-5" x1="802.48" y1="435" x2="817.32" y2="435" xlink:href="#linear-gradient-3"/>
    <linearGradient id="linear-gradient-6" x1="805.48" y1="427.44" x2="824.14" y2="427.44" xlink:href="#linear-gradient-4"/>
    <linearGradient id="linear-gradient-7" x1="147.87" y1="434.25" x2="147.87" y2="423.57" gradientTransform="translate(45.19)" gradientUnits="userSpaceOnUse">
      <stop offset="0" stop-color="#ed2d24"/>
      <stop offset="0.12" stop-color="#ed2824"/>
      <stop offset="0.25" stop-color="#ec1c24"/>
      <stop offset="1" stop-color="#74020d"/>
    </linearGradient>
    <radialGradient id="radial-gradient" cx="3026.93" cy="693.65" r="12.08" gradientTransform="matrix(0.74, 0.02, -0.03, 0.82, -2121.15, -206.49)" gradientUnits="userSpaceOnUse">
      <stop offset="0" stop-color="#00ddde" stop-opacity="0.52"/>
      <stop offset="0.09" stop-color="#2de6e7" stop-opacity="0.65"/>
      <stop offset="0.2" stop-color="#63f1f1" stop-opacity="0.8"/>
      <stop offset="0.3" stop-color="#8af8f9" stop-opacity="0.91"/>
      <stop offset="0.38" stop-color="#a2fdfd" stop-opacity="0.98"/>
      <stop offset="0.43" stop-color="#abffff"/>
      <stop offset="0.46" stop-color="#9ffcfd"/>
      <stop offset="0.51" stop-color="#7ff6f6"/>
      <stop offset="0.58" stop-color="#4aebeb"/>
      <stop offset="0.66" stop-color="#03dcdd"/>
      <stop offset="0.66" stop-color="#00dbdc"/>
      <stop offset="0.69" stop-color="#08dcdd" stop-opacity="0.97"/>
      <stop offset="0.74" stop-color="#1fdfe0" stop-opacity="0.88"/>
      <stop offset="0.8" stop-color="#44e5e5" stop-opacity="0.73"/>
      <stop offset="0.87" stop-color="#78eced" stop-opacity="0.53"/>
      <stop offset="0.94" stop-color="#baf5f6" stop-opacity="0.27"/>
      <stop offset="1" stop-color="#fff" stop-opacity="0"/>
    </radialGradient>
    <linearGradient id="_ÂÁ_Ï_ÌÌ_È_ËÂÌÚ_14" data-name="¡ÂÁ˚ÏˇÌÌ˚È „‡‰ËÂÌÚ 14" x1="4378.03" y1="560.21" x2="4441.48" y2="560.21" gradientTransform="translate(-4259.86 13.43) rotate(-2.88)" gradientUnits="userSpaceOnUse">
      <stop offset="0" stop-color="#003a6b"/>
      <stop offset="1" stop-color="#00204c"/>
    </linearGradient>
    <linearGradient id="_ÂÁ_Ï_ÌÌ_È_ËÂÌÚ_18" data-name="¡ÂÁ˚ÏˇÌÌ˚È „‡‰ËÂÌÚ 18" x1="4442.79" y1="324.63" x2="4474.94" y2="378.8" gradientTransform="translate(-4284.51)" gradientUnits="userSpaceOnUse">
      <stop offset="0" stop-color="#cbd7e1"/>
      <stop offset="0.05" stop-color="#aec0d0"/>
      <stop offset="0.15" stop-color="#7998b2"/>
      <stop offset="0.26" stop-color="#4e7698"/>
      <stop offset="0.35" stop-color="#2c5c85"/>
      <stop offset="0.44" stop-color="#144976"/>
      <stop offset="0.53" stop-color="#053e6e"/>
      <stop offset="0.6" stop-color="#003a6b"/>
      <stop offset="1" stop-color="#00204c"/>
    </linearGradient>
  </defs>
  <title>robot</title>
  <g class="cls-1">
    <g id="prosabot">
      <g id="fondo">
        <rect class="cls-2" width="1024" height="620"/>
      </g>
      <g id="sombra">
        <ellipse class="cls-3" cx="163.31" cy="546.82" rx="45.74" ry="10.27"/>
        <ellipse class="cls-4" cx="163.31" cy="546.82" rx="35.63" ry="6.53"/>
        <path class="cls-4" d="M184.76,546.82c0,2.18-9.6,3.94-21.45,3.94s-21.45-1.76-21.45-3.94,9.61-3.93,21.45-3.93S184.76,544.65,184.76,546.82Z"/>
      </g>
      <g id="brazoIzquierdo">
        <g>
          <path class="cls-5" d="M242.35,445.46c-11-33.68-26.72-43.89-30.37-45.87a2.35,2.35,0,0,0-1.85-.14c-2.49.76-8.78,3.82-14,15.86-3.64,8.31-1.05,18.56-.6,18.94,4.61,3.93,33.56,28.75,41.52,38C245.66,482.26,247,459.85,242.35,445.46Z"/>
          <path class="cls-6" d="M196.05,415.36a44.17,44.17,0,0,1,5.23-9.15c-.59,1.11-1.17,2.3-1.74,3.61-4.59,10.49-1.39,15.23.91,18.42,8.27,11.43,30.36,30.09,37,44.59-.16-.17-.33-.35-.5-.55-8-9.23-36.92-34-41.53-38C195,433.92,192.41,423.67,196.05,415.36Z"/>
          <path class="cls-7" d="M216.24,411.28c17.58,6.2,26.78,48.3,26.78,48.3s-13.86-26.15-23.34-35.67S210.25,409.16,216.24,411.28Z"/>
          <path class="cls-6" d="M232.21,466.7a48.32,48.32,0,0,1,.84,6.26c0,.61-2.4,4.42-2.46,4.13-.47-2.57-4.13-15.49-6.91-18.08C222.7,458.1,231.87,464.18,232.21,466.7Z"/>
          <path class="cls-8" d="M223.44,459.56a.59.59,0,0,0,.29-.36c2.37-8.13,9.15-16.78,17.07-16.79a.57.57,0,0,0,.5-.45.34.34,0,0,0-.3-.45c-8.4,0-15.56,9.08-18,17.61a.36.36,0,0,0,.26.49A.44.44,0,0,0,223.44,459.56Z"/>
        </g>
        <path class="cls-9" d="M207.42,418.07c6.33-11.26,8.35-22,4.52-23.89s-12.08,5.63-18.41,16.9S185.28,432.87,189,435C194.42,438,201.09,429.33,207.42,418.07Z"/>
      </g>
      <g id="torso">
        <path class="cls-5" d="M122,391.22c-4.42-.28-20,15.38-15.34,30.58s31.32,65.93,37.34,83.69,9.64,22.13,18.22,23.75,21.52,2.2,36.53-29.16,17.33-66.56,18-83.29-1.07-23.37-6.92-25.28C196.16,387.06,122,391.22,122,391.22Z"/>
        <path class="cls-7" d="M192.65,496.39c11.64-33,10.24-68.44,9.16-85.23-.72-11.17-2-17.76-4.61-21.3-12.4-.69-30.52-.39-45.87.1,8.21,21.66,20.34,58.12,22.36,95.69,1.35,25.06-2.11,37.31-6.91,43.58C174.6,527.67,184,520.93,192.65,496.39Z"/>
        <path class="cls-10" d="M211.1,392.9c0,3.25-23,8.3-46.14,8.34s-46.15-4.94-46.16-8.19,23-3.54,46.14-3.58S211.09,389.65,211.1,392.9Z"/>
        <path class="cls-11" d="M197.09,393.57c0,2.24-15.82,5.73-31.78,5.76s-31.8-3.41-31.8-5.66,15.83-2.45,31.79-2.48S197.08,391.32,197.09,393.57Z"/>
        <path class="cls-12" d="M187.38,394.73c0,.86-10.91,1.95-21.55,2s-20.81-1-20.81-1.9,10.18-1.2,20.81-1.22S187.37,393.87,187.38,394.73Z"/>
        <path class="cls-13" d="M153.49,509.16c-2.47-13.29-6.14-56.76-14.87-87.43-4.38-15.38-14.69-26.23-24.67-22.79-7.08,2.44-9.88,14.65-7.34,22.86,4.7,15.21,31.32,65.93,37.34,83.69s9.64,22.13,18.22,23.75c4.41.83,10,1.37,16.41-2.56C169.89,528,157.56,531.17,153.49,509.16Z"/>
        <path class="cls-14" d="M184.16,515.64a16,16,0,0,1-5.28.87,24.55,24.55,0,0,1-5.91-.43,2.36,2.36,0,0,1-2.06-2.2h0a2.13,2.13,0,0,1,2.07-2.19s4.54.51,5.65.5a41,41,0,0,0,5.73-.54c1.14,0,2.2.33,1.86,2A2.85,2.85,0,0,1,184.16,515.64Z"/>
        <path class="cls-15" d="M183.43,515.39a15.82,15.82,0,0,1-4.57.62,25,25,0,0,1-5.1-.31c-.95-.19-1.79-.7-1.79-1.56h0a1.7,1.7,0,0,1,1.79-1.56s3.93.36,4.89.35a40.73,40.73,0,0,0,5-.38c1,0,1.9.24,1.6,1.4C185.08,514.49,184.62,515,183.43,515.39Z"/>
        <path class="cls-8" d="M177.6,505.61c-10.44,0-23.24-2.26-37-7.94a.37.37,0,1,1,.28-.68c25.72,10.57,47.85,9.23,57.53,3.51a.37.37,0,0,1,.51.13.38.38,0,0,1-.13.51C194.15,503.86,186.79,505.61,177.6,505.61Z"/>
        <path class="cls-16" d="M177.33,504.78c-10.44,0-23.24-2.26-37.05-7.93a.37.37,0,0,1-.2-.49.39.39,0,0,1,.48-.2c25.73,10.58,47.86,9.23,57.54,3.51a.37.37,0,1,1,.38.64C193.87,503,186.51,504.78,177.33,504.78Z"/>
        <path class="cls-7" d="M214.77,399.8c2,40.2-3.83,59.22-3.83,59.22s5.54-30.37.43-59.73C210.67,395.26,214.46,393.52,214.77,399.8Z"/>
        <path class="cls-16" d="M122.34,397s4.57,2.75,21.3,4.31,38.74,1.26,38.74,1.26-20.29,2.68-38.82.69S122.34,397,122.34,397Z"/>
        <path class="cls-17" d="M181.32,512.8c-.81.07-1.75.13-2.67.13s-4.89-.35-4.89-.35a2.22,2.22,0,0,0-.37,0l1.8,3.29a33.25,33.25,0,0,0,3.67.11,16.42,16.42,0,0,0,4.26-.54Z"/>
        <g>
          <path class="cls-18" d="M177.3,427.34a14.2,14.2,0,0,1,8.86-13.15,13.64,13.64,0,0,1,1.58.2,13.07,13.07,0,0,1,10.87,12.45c0,.14,0,.29,0,.43v.16a8.1,8.1,0,0,0-8.1-8.09,8.27,8.27,0,0,0-2.65.44c.81-.28.77-.28,0,0a7.84,7.84,0,0,0-2.74-.48,7.76,7.76,0,0,0-7.73,8v.07a7.63,7.63,0,0,0,7.66,7.95,7.84,7.84,0,0,0,2.5-.4,8.09,8.09,0,0,0,11.1-7.39,12.93,12.93,0,0,1-10.79,12.72,15.05,15.05,0,0,1-1.66.21A14.2,14.2,0,0,1,177.3,427.34Z"/>
          <path class="cls-19" d="M182.42,427.44a8.09,8.09,0,0,0,5.1,7.52,7.84,7.84,0,0,1-2.5.4,7.63,7.63,0,0,1-7.66-7.95v-.07a7.76,7.76,0,0,1,7.73-8,7.84,7.84,0,0,1,2.74.48c.81-.3.85-.3,0,0A8.11,8.11,0,0,0,182.42,427.44Z"/>
          <path class="cls-20" d="M185,414.14c.39,0,.76,0,1.14.05a14.19,14.19,0,0,0,0,26.31c-.35,0-.71,0-1.08,0a13.2,13.2,0,0,1-13.6-13.2v-.07C171.49,420,177.14,414.14,185,414.14Z"/>
          <path class="cls-21" d="M198.62,427.44v0Z"/>
          <path class="cls-22" d="M187.74,434.89Z"/>
          <path class="cls-23" d="M187.74,434.89Z"/>
          <path class="cls-24" d="M190.52,435.54a8.09,8.09,0,0,1-3-.58l.22-.07h0a7.9,7.9,0,0,0,5.21-7.55v-.07a7.76,7.76,0,0,0-5.12-7.47l0,0a8.27,8.27,0,0,1,2.65-.44,8.1,8.1,0,0,1,8.1,8.09v.14A8.1,8.1,0,0,1,190.52,435.54Z"/>
          <path class="cls-25" d="M190.52,435.54a8.09,8.09,0,0,1-3-.58l.22-.07h0a7.9,7.9,0,0,0,5.21-7.55v-.07a7.76,7.76,0,0,0-5.12-7.47l0,0a8.27,8.27,0,0,1,2.65-.44,8.1,8.1,0,0,1,8.1,8.09v.14A8.1,8.1,0,0,1,190.52,435.54Z"/>
        </g>
      </g>
      <g id="brazoDerecho">
        <path class="cls-26" d="M131.3,421.16c3.19,11.09.67,21.54-5.63,23.35s-14-5.72-17.16-16.81-.67-21.55,5.63-23.35S128.12,410.06,131.3,421.16Z"/>
        <path class="cls-27" d="M123.65,441.77a.4.4,0,0,1-.41-.37.42.42,0,0,1,.38-.43,4.6,4.6,0,0,0,3.7-2.59c2.61-4.49,2.11-13-1.18-19.74-3.92-8.07-10.19-11.3-13.76-9.65a.4.4,0,0,1-.33-.73c4.48-2.07,11.12,2.43,14.81,10,3.4,7,3.89,15.79,1.15,20.5a5.41,5.41,0,0,1-4.34,3Z"/>
        <g>
          <path class="cls-5" d="M89.19,462.53c2.64-32.36,13.81-47.43,16.47-50.61a2.65,2.65,0,0,1,1.53-.9c2.22-.43,8.07-.58,14.81,7.09,4.66,5.29,4.48,14.82,4.18,15.32-3.09,5.19-22.47,37.88-27.33,48.85C93.56,494.2,88.06,476.36,89.19,462.53Z"/>
          <path class="cls-6" d="M122,418.14a26.25,26.25,0,0,0-6.15-5.31c.71.67,1.42,1.4,2.16,2.23,5.87,6.69,4.11,11.94,2.81,15.54-4.7,12.91-19.54,37.62-22.29,52.38.11-.21.21-.43.32-.67,4.86-11,24.24-43.66,27.33-48.85C126.52,433,126.69,423.43,122,418.14Z"/>
          <path class="cls-7" d="M104.37,423.35c-13.48,12.55-13,51.08-13,51.08S97.87,447,104,435.2,109,419.06,104.37,423.35Z"/>
          <path class="cls-6" d="M101.78,475.7a41.18,41.18,0,0,0,.52,5.51,9.14,9.14,0,0,0,2.85,2.35c-.11-2.31.44-14.49,2.26-17.79C108.06,464.6,101.58,473.49,101.78,475.7Z"/>
          <path class="cls-8" d="M107.72,466.11a.37.37,0,0,1-.31-.17c-3.55-5.69-10.9-9.93-17.52-6.57a.37.37,0,0,1-.5-.17.36.36,0,0,1,.16-.49c7-3.55,14.76.87,18.49,6.84a.38.38,0,0,1-.12.51A.46.46,0,0,1,107.72,466.11Z"/>
        </g>
        <g>
          <path class="cls-28" d="M112.2,432.51c-.17,5.49-4.31,9.81-9.25,9.66s-8.81-4.72-8.64-10.2,4.3-9.81,9.24-9.66S112.36,427,112.2,432.51Z"/>
          <g>
            <path class="cls-29" d="M97.13,433.09a8.69,8.69,0,0,0,2,5.24,18.07,18.07,0,0,0,2.16,2.48s5.7-1.46,7.27-4.74c.33-.68,1.82-5,1.82-5s.45-1-.39-1.52a23.39,23.39,0,0,1-2.89-1.64,8.16,8.16,0,0,0-1.93-1.23c-.55-.2-.79-.09-1.79,0a33,33,0,0,1-3.4-.09c-1,0-1.13,1.13-1.13,1.13A55.49,55.49,0,0,0,97.13,433.09Z"/>
            <path class="cls-30" d="M98.82,427.74a55.49,55.49,0,0,0-1.69,5.35c-.24,3.69,4.13,7.72,4.13,7.72h0s5.7-1.46,7.27-4.74c.33-.68,1.82-5,1.82-5s.45-1-.39-1.51a27.05,27.05,0,0,1-2.89-1.63,8,8,0,0,0-1.93-1.24c-.55-.2-.79-.09-1.79,0a30.57,30.57,0,0,1-3.4-.08C98.94,426.58,98.82,427.74,98.82,427.74Zm.9-.19h.84a9.49,9.49,0,0,0,2.62,0c1.81-.35,2.36.57,3.23,1.19a16.23,16.23,0,0,0,2.22,1.3c.26.13.5.25.73.38a1.42,1.42,0,0,1,0,.2.15.15,0,0,0,0,.07c-.57,1.64-1.56,4.42-1.78,4.88a7.86,7.86,0,0,1-3.73,3.1,18.39,18.39,0,0,1-2.2.88,19.68,19.68,0,0,1-1.54-1.86A8.44,8.44,0,0,1,98.27,433a34.87,34.87,0,0,1,1.37-5.19Z"/>
            <path class="cls-31" d="M97.13,433.09c-.14,2.14,1.27,4.4,2.48,5.91-1.1-1.49-2.22-3.5-2.1-5.41.06-.78,1.7-5.36,1.7-5.36s.12-1.15,1.12-1.13a30.47,30.47,0,0,0,3.4.09c1-.07,1.25-.19,1.79,0a8.28,8.28,0,0,1,1.93,1.24,26.51,26.51,0,0,0,2.89,1.64l.08.05a1,1,0,0,0-.46-.55,24.76,24.76,0,0,1-2.89-1.64,8.16,8.16,0,0,0-1.93-1.23c-.55-.2-.79-.09-1.79,0a30.57,30.57,0,0,1-3.4-.08c-1,0-1.13,1.13-1.13,1.13A55.49,55.49,0,0,0,97.13,433.09Z"/>
            <path class="cls-30" d="M102.82,433.18a.34.34,0,0,0,.09.34l-.07.27a.07.07,0,0,0,0,.09l.21.06a.08.08,0,0,0,.09-.05l.08-.27a.4.4,0,0,0,.24-.25.37.37,0,0,0-.26-.44A.35.35,0,0,0,102.82,433.18Z"/>
            <path class="cls-30" d="M102.82,431.35l-.13.53,1.58.41.13-.52a.82.82,0,1,0-1.58-.42Z"/>
            <path class="cls-30" d="M100,429s-1,3.37-1,3.95c-.21,2.74,2.84,5.9,2.84,5.9h0s4-1.13,5.19-3.59c.24-.51,1.34-3.72,1.34-3.72s.33-.78-.26-1.12a17.66,17.66,0,0,1-2-1.19,11,11,0,0,0-.92-.63,3.75,3.75,0,0,0-.58-.32h0a2.28,2.28,0,0,0-1.19-.1,17.21,17.21,0,0,1-2.4,0C100.2,428.17,100,429,100,429Zm1.45,3a.45.45,0,0,1,.54-.32l.12,0,.14-.52a1.45,1.45,0,1,1,2.81.74l-.14.53.12,0a.43.43,0,0,1,.31.54l-.54,2.05a.44.44,0,0,1-.54.32l-3-.8a.45.45,0,0,1-.31-.55Z"/>
            <path class="cls-31" d="M98.92,433c-.15,2,1.38,4.16,2.26,5.23-.88-1.17-2-3-1.88-4.73,0-.58,1-3.95,1-3.95s.24-.85,1-.84a18.74,18.74,0,0,0,2.39,0,2.17,2.17,0,0,1,1.19.1h0a5.37,5.37,0,0,1,.57.31c.27.16.58.38.93.64a15.86,15.86,0,0,0,2,1.15.68.68,0,0,0-.34-.46,17.59,17.59,0,0,1-2-1.19c-.35-.26-.67-.47-.93-.63a4.9,4.9,0,0,0-.58-.32h0a2.28,2.28,0,0,0-1.19-.1,17,17,0,0,1-2.39,0c-.71,0-1,.84-1,.84S99,432.38,98.92,433Z"/>
          </g>
        </g>
      </g>
      <g id="cabeza">
        <g>
          <path class="cls-5" d="M125.47,378.86c10.55,13.58,42.82,11,51.81,10.13s24.23-2.42,29.72-19,2.74-41.82-12.35-54.94-55.46-11-69.18,6.7S121.81,374.15,125.47,378.86Z"/>
          <path class="cls-16" d="M128.26,325.39c.6-.21,13.06-9.9,35.63-11.83,7.77-.67,19.88,0,27.65,1.07-.77-.82-11.94-7.26-35-4.87A45.47,45.47,0,0,0,128.26,325.39Z"/>
          <path class="cls-7" d="M169.29,321.38c-7.27.12-14.55.64-21.4,3.24l-.15.06c7.11,15.06,7.69,34.67,3.53,48.7a29.67,29.67,0,0,1-6.05,11.37c12.55,2.21,26.6,1.06,32.06.54,5.95-.57,14.63-1.45,21.41-6.77a34.2,34.2,0,0,0,2-5.14c4.21-14.21,3.56-34.16-3.82-49.29A117.42,117.42,0,0,0,169.29,321.38Z"/>
          <path class="cls-32" d="M143,334.75c4.18-5.69,15.6-7.18,29.9-8,18.46-1.1,24.7,2.23,26.59,4.37s5.15,12.73,4.45,23-.82,13.4-5.06,16-16.47,5.07-24.38,5.26c-15,.37-22.54-.36-27.55-3.31-2.56-1.5-5.82-9.6-6.33-19.6S140.85,337.7,143,334.75Z"/>
          <path class="cls-33" d="M172.41,328.31c-8.89.51-16.61,1.28-22,3.2,4.75,13.18,4.78,28.83,1.26,40.4,0,.13-.09.26-.13.39,4.74,1.37,11.54,1.7,22.44,1.44,7.58-.18,19.32-2.52,23.39-4.91a7.24,7.24,0,0,0,3.19-3.33,68.91,68.91,0,0,0-2.35-32.77,3.72,3.72,0,0,0-.26-.34C196.1,330.4,190.11,327.28,172.41,328.31Z"/>
          <path class="cls-9" d="M133.31,344.22c-.24,5.59-3.37,10-7,9.84s-6.33-4.83-6.08-10.42,3.38-10,7-9.84S133.56,338.62,133.31,344.22Z"/>
          <path class="cls-34" d="M130.46,343.8c-.18,3.93-2.09,7-4.28,6.93s-3.81-3.35-3.64-7.28,2.09-7,4.28-6.94S130.63,339.87,130.46,343.8Z"/>
          <path class="cls-27" d="M130.52,344.09h0a13.73,13.73,0,0,0-1.65-7.45,6,6,0,0,0-4.79-3.35c-3.79-.17-7.11,4.4-7.36,10.19s2.63,10.64,6.43,10.81h.21C127.07,354.29,130.27,349.78,130.52,344.09ZM124.05,334a5.27,5.27,0,0,1,4.18,3,12.89,12.89,0,0,1,1.55,7c-.24,5.38-3.2,9.63-6.6,9.49s-6-4.65-5.72-10,3.09-9.49,6.42-9.49Z"/>
          <path class="cls-7" d="M123.6,357.19l2.65.09s1.12,11,4.29,17.45,7.67,8.53,7.67,8.53-6.78-2.2-10.84-10.57C124.45,366.66,123.6,357.19,123.6,357.19Z"/>
          <path class="cls-35" d="M145.5,335.59v0a1.41,1.41,0,0,0,2,.48c1.29-.88,3.25-2.2,4.38-2.81,1.78-1,10.59-4.23,10.59-4.23s-8.83.18-16.33,4.26A1.67,1.67,0,0,0,145.5,335.59Z"/>
        </g>
        <path class="cls-36" d="M138.58,342.93c0,1.74-.81,3.15-1.8,3.15s-1.81-1.41-1.81-3.15.81-3.14,1.81-3.14S138.58,341.2,138.58,342.93Z"/>
      </g>
      <g id="ojos">
        <g>
          <rect class="cls-37" x="159.99" y="338.66" width="12.73" height="16.63" rx="5.9"/>
          <rect class="cls-37" x="161.33" y="340.45" width="10.06" height="13.05" rx="5.03"/>
          <rect class="cls-38" x="163.02" y="342.13" width="6.98" height="10.16" rx="3.49"/>
          <path class="cls-39" d="M169.26,346.05h-5.73a.28.28,0,1,1,0-.56h5.73a.28.28,0,0,1,0,.56Z"/>
          <path class="cls-39" d="M169.26,347.26h-5.73a.28.28,0,1,1,0-.56h5.73a.28.28,0,0,1,0,.56Z"/>
          <path class="cls-39" d="M169.26,348.51h-5.73a.28.28,0,1,1,0-.55h5.73a.28.28,0,1,1,0,.55Z"/>
          <path class="cls-39" d="M168.53,343.72h-4.27a.28.28,0,1,1,0-.55h4.27a.28.28,0,1,1,0,.55Z"/>
          <path class="cls-39" d="M169.26,345h-5.73a.28.28,0,1,1,0-.55h5.73a.28.28,0,1,1,0,.55Z"/>
          <path class="cls-39" d="M169.26,350h-5.73a.28.28,0,0,1-.28-.28.27.27,0,0,1,.28-.28h5.73a.28.28,0,0,1,.28.28A.29.29,0,0,1,169.26,350Z"/>
          <path class="cls-39" d="M169.26,351.22h-5.73a.28.28,0,1,1,0-.56h5.73a.28.28,0,0,1,0,.56Z"/>
        </g>
        <g>
          <rect class="cls-37" x="182.85" y="338.36" width="12.73" height="16.63" rx="5.9"/>
          <rect class="cls-37" x="184.19" y="340.15" width="10.06" height="13.05" rx="5.03"/>
          <rect class="cls-38" x="185.88" y="341.83" width="6.98" height="10.16" rx="3.49"/>
          <path class="cls-39" d="M192.12,345.75h-5.73a.28.28,0,1,1,0-.56h5.73a.28.28,0,1,1,0,.56Z"/>
          <path class="cls-39" d="M192.12,347h-5.73a.28.28,0,1,1,0-.56h5.73a.28.28,0,0,1,0,.56Z"/>
          <path class="cls-39" d="M192.12,348.21h-5.73a.28.28,0,1,1,0-.55h5.73a.28.28,0,1,1,0,.55Z"/>
          <path class="cls-39" d="M191.39,343.42h-4.27a.28.28,0,1,1,0-.55h4.27a.28.28,0,1,1,0,.55Z"/>
          <path class="cls-39" d="M192.12,344.68h-5.73a.27.27,0,0,1-.28-.28.28.28,0,0,1,.28-.28h5.73a.29.29,0,0,1,.28.28A.28.28,0,0,1,192.12,344.68Z"/>
          <path class="cls-39" d="M192.12,349.7h-5.73a.28.28,0,1,1,0-.55h5.73a.28.28,0,1,1,0,.55Z"/>
          <path class="cls-39" d="M192.12,350.92h-5.73a.28.28,0,0,1-.28-.28.27.27,0,0,1,.28-.28h5.73a.28.28,0,0,1,.28.28A.29.29,0,0,1,192.12,350.92Z"/>
        </g>
      </g>
      <path id="boca" class="cls-40" d="M169,363.82c5.75.73,16.05,1.3,16.05,1.3s-9.12.93-15.06-.1S162.83,363,169,363.82Z"/>
    </g>
  </g>
</svg>
